<svg width="9" height="9" viewBox="0 0 9 9" fill="none" xmlns="http://www.w3.org/2000/svg">
<path d="M2.508 6.18V6.912H5.208V7.44H2.508V9H1.62V7.44H0.36V6.912H1.62V0.599999H4.764C5.844 0.599999 6.684 0.843999 7.284 1.332C7.892 1.812 8.196 2.496 8.196 3.384C8.196 4.28 7.892 4.972 7.284 5.46C6.684 5.94 5.844 6.18 4.764 6.18H2.508ZM2.508 1.368V5.424H4.776C5.592 5.424 6.216 5.248 6.648 4.896C7.088 4.544 7.308 4.044 7.308 3.396C7.308 2.748 7.088 2.248 6.648 1.896C6.216 1.544 5.592 1.368 4.776 1.368H2.508Z" fill="#879396"/>
</svg>
