<svg width="20" height="20" viewBox="0 0 20 20" fill="none" xmlns="http://www.w3.org/2000/svg">
<path d="M1.63558 9.89522L5.66058 11.2621L15.2174 5.41959C15.3562 5.33522 15.4981 5.52334 15.3787 5.63334L8.1437 12.2927L7.87495 16.0208C7.87056 16.0833 7.88526 16.1456 7.9171 16.1995C7.94893 16.2534 7.99641 16.2964 8.05322 16.3227C8.11003 16.349 8.17349 16.3574 8.23519 16.3468C8.2969 16.3362 8.35392 16.3071 8.3987 16.2633L10.6262 14.0727L14.6987 17.1552C15.1374 17.4877 15.7731 17.2533 15.8912 16.7158L18.7268 3.84084C18.8887 3.10647 18.1687 2.48647 17.4668 2.75522L1.61558 8.82522C1.11808 9.01584 1.13183 9.72397 1.63558 9.89522Z" fill="white"/>
</svg>
