<svg width="20" height="20" viewBox="0 0 20 20" fill="none" xmlns="http://www.w3.org/2000/svg">
<g clip-path="url(#clip0_738_8822)">
<path d="M10.1208 16.2502C13.0142 16.2502 11.9825 14.4186 12.2058 13.8919C12.2025 13.4986 12.1992 13.1202 12.2125 12.8902C12.3958 12.9419 12.8283 13.1611 13.7217 14.0294C15.1008 15.4211 15.4533 16.2502 16.5675 16.2502H18.6183C19.2683 16.2502 19.6067 15.9811 19.7758 15.7552C19.9392 15.5369 20.0992 15.1536 19.9242 14.5569C19.4667 13.1202 16.7983 10.6394 16.6325 10.3777C16.6594 10.3281 16.688 10.2795 16.7183 10.2319H16.7167C17.2433 9.53608 19.2533 6.52441 19.5492 5.31941C19.5502 5.31734 19.5508 5.31506 19.5508 5.31274C19.7108 4.76274 19.5642 4.40608 19.4125 4.20441C19.1842 3.90274 18.8208 3.75024 18.33 3.75024H16.2792C15.5925 3.75024 15.0717 4.09608 14.8083 4.72691C14.3675 5.84774 13.1292 8.15274 12.2008 8.96858C12.1801 8.07062 12.1821 7.17227 12.2067 6.27441C12.2367 4.99524 12.3333 3.75024 11.0058 3.75024H7.7825C6.95083 3.75024 6.155 4.65858 7.01667 5.73691C7.77 6.68191 7.2875 7.20858 7.45 9.83024C6.81667 9.15108 5.69 7.31691 4.89333 4.97274C4.67 4.33858 4.33167 3.75108 3.37917 3.75108H1.32833C0.496667 3.75108 0 4.20441 0 4.96358C0 6.66858 3.77417 16.2502 10.1208 16.2502ZM3.37917 5.00108C3.56 5.00108 3.57833 5.00108 3.7125 5.38191C4.52833 7.78441 6.35833 11.3394 7.695 11.3394C8.69917 11.3394 8.69917 10.3102 8.69917 9.92274L8.69833 6.83774C8.64333 5.81691 8.27167 5.30858 8.0275 5.00024L10.9508 5.00358C10.9525 5.01774 10.9342 8.41608 10.9592 9.23941C10.9592 10.4086 11.8875 11.0786 13.3367 9.61191C14.8658 7.88608 15.9233 5.30608 15.9658 5.20108C16.0283 5.05108 16.0825 5.00024 16.2792 5.00024H18.3383L18.3367 5.00774C18.1492 5.88274 16.2983 8.67108 15.6792 9.53691L15.6508 9.57858C15.3783 10.0236 15.1567 10.5152 15.6883 11.2069C15.7367 11.2652 15.8633 11.4019 16.0467 11.5919C16.6167 12.1802 18.5717 14.1919 18.745 14.9919C18.63 15.0102 18.505 14.9969 16.5675 15.0011C16.155 15.0011 15.8325 14.3844 14.6017 13.1427C13.495 12.0661 12.7767 11.6261 12.1225 11.6261C10.8525 11.6261 10.945 12.6569 10.9567 13.9036C10.9608 15.2552 10.9525 14.8277 10.9617 14.9127C10.8875 14.9419 10.675 15.0002 10.1208 15.0002C4.83333 15.0002 1.39 6.60774 1.2575 5.00358C1.30333 4.99941 1.93417 5.00191 3.37917 5.00108Z" fill="white"/>
</g>
<defs>
<clipPath id="clip0_738_8822">
<rect width="20" height="20" fill="white" transform="translate(0 0.000244141)"/>
</clipPath>
</defs>
</svg>
