<svg width="18" height="18" viewBox="0 0 18 18" fill="none" xmlns="http://www.w3.org/2000/svg">
<path d="M7.04102 8.66098H7.71333C8.44075 8.66098 8.81244 8.13545 8.81244 7.61215C8.81244 7.10444 8.43054 6.58838 7.71333 6.58838H7.04102V8.66098Z" fill="white"/>
<path fill-rule="evenodd" clip-rule="evenodd" d="M2.17792 13.7308C2.17792 14.8171 3.05862 15.6978 4.14493 15.6978H10.9977C12.084 15.6978 12.9647 14.8171 12.9647 13.7308V4.38046C12.9647 3.29415 12.084 2.41345 10.9977 2.41345H4.14474C3.05844 2.41345 2.17773 3.29415 2.17773 4.38046L2.17792 13.7308ZM6.0765 6.10586C6.0765 5.9779 6.12733 5.85518 6.21781 5.7647C6.30829 5.67422 6.43101 5.62339 6.55897 5.62339H7.71376C9.00493 5.62339 9.77782 6.61339 9.77782 7.61211C9.77782 8.59506 9.04483 9.62589 7.71376 9.62589H7.04145V10.3765L8.58982 10.3682C8.65318 10.3678 8.71598 10.38 8.77465 10.4039C8.83332 10.4278 8.8867 10.4631 8.93174 10.5076C8.97678 10.5522 9.01261 10.6052 9.03717 10.6636C9.06173 10.722 9.07455 10.7847 9.07489 10.848C9.07523 10.9114 9.06309 10.9742 9.03916 11.0329C9.01523 11.0915 8.97997 11.1449 8.93541 11.19C8.89085 11.235 8.83786 11.2708 8.77945 11.2954C8.72104 11.3199 8.65837 11.3328 8.59501 11.3331L7.04145 11.3415V12.0052C7.04145 12.1332 6.99061 12.2559 6.90013 12.3464C6.80965 12.4369 6.68693 12.4877 6.55897 12.4877C6.43101 12.4877 6.30829 12.4369 6.21781 12.3464C6.12733 12.2559 6.0765 12.1332 6.0765 12.0052V11.3466L5.85011 11.3479C5.78675 11.3483 5.72394 11.3361 5.66527 11.3122C5.60661 11.2883 5.55323 11.253 5.50818 11.2085C5.46314 11.1639 5.42732 11.1109 5.40275 11.0525C5.37819 10.9941 5.36537 10.9314 5.36503 10.8681C5.36469 10.8047 5.37683 10.7419 5.40077 10.6832C5.4247 10.6246 5.45995 10.5712 5.50451 10.5261C5.54907 10.4811 5.60207 10.4453 5.66047 10.4207C5.71888 10.3962 5.78155 10.3833 5.84491 10.383L6.0765 10.3817V9.62589H5.84751C5.71955 9.62589 5.59683 9.57505 5.50635 9.48457C5.41587 9.39409 5.36503 9.27137 5.36503 9.14341C5.36503 9.01545 5.41587 8.89273 5.50635 8.80225C5.59683 8.71177 5.71955 8.66094 5.84751 8.66094H6.0765V6.10586Z" fill="white"/>
<path d="M13.8867 13.8152C13.8867 13.9432 13.9376 14.0659 14.028 14.1564C14.1185 14.2469 14.2412 14.2977 14.3692 14.2977H15.0517C15.3765 14.2977 15.688 14.1687 15.9177 13.939C16.1474 13.7093 16.2765 13.3978 16.2765 13.073V7.12684C16.2765 6.80202 16.1474 6.4905 15.9177 6.26082C15.688 6.03113 15.3765 5.9021 15.0517 5.9021H14.3692C14.2412 5.9021 14.1185 5.95293 14.028 6.04341C13.9376 6.13389 13.8867 6.25661 13.8867 6.38457V13.8152Z" fill="white"/>
</svg>
