<svg width="71" height="71" viewBox="0 0 71 71" fill="none" xmlns="http://www.w3.org/2000/svg">
<path d="M53.7131 42.8619C54.869 43.3469 55.3643 44.9643 55.3643 45.7729C55.5293 47.0668 55.1993 47.7134 54.704 47.7134C54.2087 47.7134 53.5481 47.2284 52.8878 46.0963C52.2272 44.9643 51.8969 43.832 52.2272 43.1853C52.7225 42.8619 53.2178 42.7 53.7131 42.8619Z" fill="#FF8C00"/>
<path d="M46.9447 47.8759C47.6053 47.8759 48.4308 48.1993 49.2562 48.846C50.577 49.9783 51.0723 51.2719 50.412 52.2424C50.0817 52.7274 49.2562 53.0509 48.5959 53.0509C47.7703 53.0509 46.9447 52.7274 46.4494 52.2424C45.1285 51.1103 44.7985 49.4929 45.6238 48.5225C45.7891 48.1993 46.2844 47.8759 46.9447 47.8759Z" fill="#FF8C00"/>
<path d="M31.2589 60.6502C14.0877 60.6502 0.21875 47.0651 0.21875 30.4073C0.21875 13.7496 14.0877 0.00292969 31.2589 0.00292969C48.4298 0.00292969 62.2987 13.5879 62.2987 30.4073C62.2987 36.0677 60.6478 41.4047 58.006 45.9331C57.841 46.0949 57.6757 46.0949 57.6757 45.7715C56.5201 38.3321 51.8972 34.2888 45.2928 32.9952C44.6325 32.8333 44.6325 32.5098 45.458 32.5098C47.6042 32.3482 50.411 32.3482 52.0622 32.6717C52.2272 31.8628 52.2272 31.0543 52.2272 30.4073C52.2272 19.41 42.9813 10.3534 31.7542 10.3534C20.5269 10.3534 11.2809 19.41 11.2809 30.4073C11.2809 41.4047 20.5269 50.4614 31.7542 50.4614H32.7448C32.4145 48.6825 32.2495 46.9035 32.4145 44.9626C32.4145 43.669 32.7448 43.5071 33.2401 44.4776C36.0469 49.3294 40.1745 53.5343 48.0995 55.3133C54.539 56.7688 60.9781 58.3859 68.0775 66.9576C68.7381 67.7661 67.7472 68.5747 67.0869 67.9277C59.9872 61.7822 53.5481 59.6798 47.6042 59.6798C40.1745 59.8417 35.7166 60.6502 31.2589 60.6502Z" fill="#FF8C00"/>
</svg>
