<svg width="16" height="16" viewBox="0 0 16 16" fill="none" xmlns="http://www.w3.org/2000/svg">
<path d="M14.75 7.4375H10.8125C9.57837 7.4375 8.5625 8.45337 8.5625 9.6875C8.5625 10.9216 9.57837 11.9375 10.8125 11.9375H13.0625V13.625C13.0625 13.9338 12.8088 14.1875 12.5 14.1875H3.5C2.57412 14.1875 1.8125 13.4259 1.8125 12.5V4.0625C1.8125 3.13662 2.57412 2.375 3.5 2.375H4.625C4.93381 2.375 5.1875 2.12131 5.1875 1.8125C5.1875 1.50369 4.93381 1.25 4.625 1.25H3.5C1.95706 1.25 0.6875 2.51956 0.6875 4.0625V12.5C0.6875 14.0429 1.95706 15.3125 3.5 15.3125H12.5C13.4259 15.3125 14.1875 14.5509 14.1875 13.625V11.9375H14.75C15.0588 11.9375 15.3125 11.6838 15.3125 11.375V8C15.3125 7.69119 15.0588 7.4375 14.75 7.4375ZM14.1875 10.8125H10.8125C10.1954 10.8125 9.6875 10.3046 9.6875 9.6875C9.6875 9.07044 10.1954 8.5625 10.8125 8.5625H14.1875V10.8125Z" fill="white"/>
<path d="M3.29802 3.53939C2.67027 3.81333 2.87783 4.62501 3.50052 4.62501H12.5005C12.8093 4.62501 13.063 4.8787 13.063 5.18751V5.75001C13.063 6.05883 13.3167 6.31251 13.6255 6.31251C13.9343 6.31251 14.188 6.05883 14.188 5.75001V5.18751C14.188 4.73996 14.0102 4.31074 13.6938 3.99427C13.3773 3.6778 12.9481 3.50001 12.5005 3.50001H12.3205L11.3361 1.04189C11.2804 0.904908 11.1733 0.795215 11.0376 0.736329C10.902 0.677443 10.7486 0.674054 10.6105 0.726887L3.29802 3.53939ZM11.1055 3.50001H6.53239L10.498 1.97564L11.1055 3.50001Z" fill="white"/>
</svg>
