<svg width="40" height="40" viewBox="0 0 40 40" fill="none" xmlns="http://www.w3.org/2000/svg">
<path d="M34.6067 25.933C34.7067 25.7397 34.7134 25.513 34.6134 25.3263C33.2401 22.5797 30.0667 20.7797 29.0067 20.2397C29.0467 19.793 29.0734 19.4197 29.0801 19.153C30.5001 18.473 31.3934 17.5863 31.3934 16.4863C31.3934 15.2397 30.2201 14.1797 28.0201 13.3997C27.8667 9.62634 27.2134 3.33301 24.4667 3.33301C23.3734 3.33301 22.6667 3.81967 22.0334 4.25301C21.4201 4.67301 20.9001 5.03301 20.0001 5.03301C19.1001 5.03301 18.5734 4.67301 17.9667 4.25301C17.3334 3.81967 16.6267 3.33301 15.5334 3.33301C12.7867 3.33301 12.1334 9.62634 11.9867 13.3997C9.78674 14.1797 8.61341 15.2397 8.61341 16.4863C8.61341 17.5863 9.50674 18.473 10.9267 19.153C10.9334 19.4197 10.9601 19.7863 11.0001 20.2397C9.94007 20.7797 6.76674 22.5797 5.39341 25.3263C5.30007 25.5197 5.30007 25.7463 5.40007 25.933C5.50007 26.1263 5.68674 26.253 5.90007 26.2797L8.74007 26.6663L6.72007 29.4463C6.66334 29.5254 6.62446 29.6159 6.60613 29.7115C6.5878 29.8071 6.59046 29.9055 6.61392 30C6.63738 30.0945 6.68108 30.1827 6.74199 30.2586C6.80291 30.3345 6.8796 30.3963 6.96674 30.4397L19.7067 36.5997C19.8001 36.6463 19.9001 36.6663 20.0001 36.6663C20.1001 36.6663 20.2001 36.6463 20.2934 36.5997L33.0334 30.4397C33.2134 30.353 33.3401 30.193 33.3867 29.9997C33.4334 29.8063 33.3934 29.6063 33.2801 29.4463L31.2601 26.6663L34.1067 26.2797C34.3201 26.253 34.5067 26.1263 34.6067 25.933ZM15.1067 24.173H18.3734C18.6334 24.173 18.8667 24.0263 18.9734 23.793L20.0001 21.633L21.0267 23.793C21.1401 24.0263 21.3734 24.173 21.6267 24.173H24.8934C25.6934 24.173 26.4534 23.8863 27.0534 23.3997C26.6067 24.9863 25.8667 26.6663 24.6401 27.8997C23.4201 29.1263 21.8601 29.7463 19.9934 29.7463C18.1267 29.7463 16.5667 29.1263 15.3467 27.8997C14.1201 26.673 13.3867 24.993 12.9334 23.3997C13.5467 23.8863 14.3001 24.173 15.1067 24.173ZM12.3267 19.7063C14.1801 20.3063 16.5401 20.653 18.9601 20.7263L17.9534 22.8397H15.1067C14.7039 22.8395 14.3096 22.7239 13.9705 22.5065C13.6313 22.2891 13.3617 21.979 13.1934 21.613L12.3267 19.7063ZM21.0467 20.7263C23.4601 20.6463 25.8201 20.3063 27.6734 19.7063L26.8067 21.613C26.6385 21.979 26.3688 22.2891 26.0297 22.5065C25.6906 22.7239 25.2962 22.8395 24.8934 22.8397H22.0467L21.0467 20.7263ZM15.5334 4.66634C16.2134 4.66634 16.6534 4.96634 17.2067 5.35301C17.8667 5.80634 18.6867 6.37301 20.0001 6.37301C21.3134 6.37301 22.1334 5.80634 22.7934 5.35301C23.3467 4.97301 23.7934 4.66634 24.4667 4.66634C25.6867 4.66634 26.5467 9.21967 26.6934 13.9197V13.9463L26.7134 14.873C22.5467 16.133 18.0334 16.1263 13.2867 14.853L13.3067 13.9397V13.9197C13.4534 9.21967 14.3134 4.66634 15.5334 4.66634ZM9.94674 16.4863C9.94674 16.073 10.5001 15.433 11.9534 14.833V15.3597C11.9534 15.6597 12.1534 15.9197 12.4401 15.9997C15.1201 16.7597 17.7267 17.1397 20.2534 17.1397C22.7934 17.1397 25.2401 16.753 27.5934 15.993C27.7271 15.9494 27.8435 15.8647 27.9261 15.751C28.0088 15.6372 28.0533 15.5003 28.0534 15.3597V14.833C29.5067 15.4263 30.0601 16.073 30.0601 16.4863C30.0601 17.6797 26.1401 19.4063 20.0067 19.4063C13.8601 19.4063 9.94674 17.6797 9.94674 16.4863ZM29.9734 25.4997C29.859 25.5151 29.7505 25.5599 29.6585 25.6297C29.5665 25.6995 29.4942 25.7919 29.4486 25.898C29.4029 26.0041 29.3855 26.1201 29.398 26.2349C29.4106 26.3497 29.4526 26.4593 29.5201 26.553L31.7267 29.593L20.0001 35.2597L8.26674 29.5863L10.4734 26.5463C10.6134 26.3597 10.6401 26.1063 10.5467 25.893C10.4534 25.6797 10.2534 25.5263 10.0201 25.493L7.07341 25.093C8.24674 23.433 10.1467 22.2263 11.1734 21.6463C11.5334 23.8463 12.3867 26.8063 14.4001 28.8263C15.8801 30.313 17.7601 31.0663 19.9934 31.0663C22.2267 31.0663 24.1067 30.313 25.5867 28.8263C27.6001 26.8063 28.4467 23.8463 28.8134 21.6463C29.8467 22.2197 31.7467 23.433 32.9201 25.093L29.9734 25.4997Z" fill="white"/>
</svg>
