<svg width="22" height="19" viewBox="0 0 22 19" fill="none" xmlns="http://www.w3.org/2000/svg">
<path d="M2.29688 6.96374L8.33766 10.921C8.85197 11.2579 9.522 11.2579 10.0363 10.921L16.0771 6.96374M3.82801 15.2388H14.546C15.3916 15.2388 16.0771 14.5652 16.0771 13.7342V6.21146C16.0771 5.38052 15.3916 4.70691 14.546 4.70691H3.82801C2.98239 4.70691 2.29688 5.38052 2.29688 6.21146V13.7342C2.29688 14.5652 2.98239 15.2388 3.82801 15.2388Z" stroke="white" stroke-width="1.2" stroke-linecap="round" stroke-linejoin="round"/>
<ellipse cx="16.682" cy="5.22622" rx="5.31868" ry="5.22622" fill="#202B40"/>
<path d="M14.6634 8.61316V7.78916L16.2794 6.10116C16.5994 5.76516 16.8447 5.49849 17.0154 5.30116C17.1914 5.09849 17.314 4.92516 17.3834 4.78116C17.4527 4.63716 17.4874 4.49049 17.4874 4.34116C17.4874 4.09049 17.4074 3.89316 17.2474 3.74916C17.0927 3.60516 16.8927 3.53316 16.6474 3.53316C16.3914 3.53316 16.17 3.60783 15.9834 3.75716C15.7967 3.90116 15.6607 4.11449 15.5754 4.39716L14.6234 4.10116C14.6874 3.78649 14.818 3.51449 15.0154 3.28516C15.2127 3.05049 15.4527 2.87183 15.7354 2.74916C16.0234 2.62116 16.3274 2.55716 16.6474 2.55716C17.0314 2.55716 17.3674 2.62649 17.6554 2.76516C17.9487 2.90383 18.1754 3.09849 18.3354 3.34916C18.5007 3.59983 18.5834 3.89316 18.5834 4.22916C18.5834 4.44249 18.5434 4.65316 18.4634 4.86116C18.3834 5.06916 18.2634 5.28249 18.1034 5.50116C17.9434 5.71449 17.7354 5.95449 17.4794 6.22116L16.0794 7.69316H18.6634V8.61316H14.6634Z" fill="#57F249"/>
</svg>
