<svg width="52" height="43" viewBox="0 0 52 43" fill="none" xmlns="http://www.w3.org/2000/svg">
<rect width="52" height="43" rx="5" fill="#202B40"/>
<path d="M34.625 20.7812H29.5938C28.0168 20.7812 26.7188 22.0793 26.7188 23.6562C26.7188 25.2332 28.0168 26.5312 29.5938 26.5312H32.4688V28.6875C32.4688 29.0821 32.1446 29.4062 31.75 29.4062H20.25C19.0669 29.4062 18.0938 28.4331 18.0938 27.25V16.4688C18.0938 15.2857 19.0669 14.3125 20.25 14.3125H21.6875C22.0821 14.3125 22.4062 13.9883 22.4062 13.5938C22.4062 13.1992 22.0821 12.875 21.6875 12.875H20.25C18.2785 12.875 16.6562 14.4972 16.6562 16.4688V27.25C16.6562 29.2215 18.2785 30.8438 20.25 30.8438H31.75C32.9331 30.8438 33.9062 29.8706 33.9062 28.6875V26.5312H34.625C35.0196 26.5312 35.3438 26.2071 35.3438 25.8125V21.5C35.3438 21.1054 35.0196 20.7812 34.625 20.7812ZM33.9062 25.0938H29.5938C28.8053 25.0938 28.1562 24.4447 28.1562 23.6562C28.1562 22.8678 28.8053 22.2188 29.5938 22.2188H33.9062V25.0938Z" fill="white"/>
<path d="M19.9915 15.8006C19.1894 16.1506 19.4546 17.1878 20.2502 17.1878H31.7502C32.1448 17.1878 32.469 17.512 32.469 17.9065V18.6253C32.469 19.0199 32.7931 19.344 33.1877 19.344C33.5823 19.344 33.9065 19.0199 33.9065 18.6253V17.9065C33.9065 17.3347 33.6793 16.7862 33.2749 16.3818C32.8706 15.9775 32.3221 15.7503 31.7502 15.7503H31.5202L30.2624 12.6094C30.1912 12.4343 30.0543 12.2942 29.8809 12.2189C29.7076 12.1437 29.5117 12.1393 29.3352 12.2069L19.9915 15.8006ZM29.9677 15.7503H24.1243L29.1915 13.8025L29.9677 15.7503Z" fill="white"/>
</svg>
