<svg width="62" height="38" viewBox="0 0 62 38" fill="none" xmlns="http://www.w3.org/2000/svg">
<g clip-path="url(#clip0_216_34756)">
<path d="M44.5 17.5001H31H17.5C16.6716 17.5001 16 18.1717 16 19.0001C16 19.8285 16.6716 20.5001 17.5 20.5001H44.5C45.3284 20.5001 46 19.8285 46 19.0001C46 18.1717 45.3284 17.5001 44.5 17.5001Z" fill="#3F3F46"/>
<path d="M44.5 8.5H17.5C16.6716 8.5 16 9.17166 16 10C16 10.8284 16.6716 11.5 17.5 11.5H44.5C45.3284 11.5 46 10.8284 46 10C46 9.17166 45.3284 8.5 44.5 8.5Z" fill="#3F3F46"/>
<path d="M44.5 26.5002H31H17.5C16.6716 26.5002 16 27.1719 16 28.0002C16 28.8286 16.6716 29.5002 17.5 29.5002H44.5C45.3284 29.5002 46 28.8286 46 28.0002C46 27.1719 45.3284 26.5002 44.5 26.5002Z" fill="#3F3F46"/>
</g>
<defs>
<clipPath id="clip0_216_34756">
<rect width="30" height="30" fill="white" transform="translate(16 4)"/>
</clipPath>
</defs>
</svg>
