<svg width="12" height="12" viewBox="0 0 12 12" fill="none" xmlns="http://www.w3.org/2000/svg">
<g clip-path="url(#clip0_364_68110)">
<path d="M11.9511 2.91163L4.51072 10.352C4.49516 10.3675 4.47668 10.3799 4.45635 10.3883C4.43601 10.3968 4.41421 10.4011 4.3922 10.4011C4.37018 10.4011 4.34839 10.3968 4.32805 10.3883C4.30772 10.3799 4.28924 10.3675 4.27368 10.352L0.0490526 6.12718C0.0176444 6.09577 0 6.05317 0 6.00874C0 5.96432 0.0176444 5.92172 0.0490526 5.8903L1.07558 4.86378C1.10702 4.83236 1.14965 4.81471 1.1941 4.81471C1.23854 4.81471 1.28117 4.83236 1.31261 4.86378L4.39235 7.94336L10.6876 1.64806C10.7191 1.61665 10.7617 1.599 10.8062 1.599C10.8506 1.599 10.8932 1.61665 10.9247 1.64806L11.9511 2.67459C11.9666 2.69015 11.979 2.70863 11.9874 2.72896C11.9958 2.7493 12.0002 2.7711 12.0002 2.79311C12.0002 2.81512 11.9958 2.83692 11.9874 2.85726C11.979 2.87759 11.9666 2.89607 11.9511 2.91163Z" fill="#0C0C20"/>
</g>
<defs>
<clipPath id="clip0_364_68110">
<rect width="12" height="12" fill="white"/>
</clipPath>
</defs>
</svg>
