<svg width="33" height="33" viewBox="0 0 33 33" fill="none" xmlns="http://www.w3.org/2000/svg">
<path d="M22.5751 20.6318C23.1127 21.1696 23.1127 22.0385 22.5751 22.5762C22.4476 22.7041 22.296 22.8055 22.1291 22.8746C21.9623 22.9438 21.7834 22.9793 21.6028 22.9791C21.2509 22.9791 20.8989 22.8444 20.6307 22.5762L16.4989 18.4442L12.3672 22.5763C12.2396 22.7041 12.0881 22.8056 11.9213 22.8747C11.7545 22.9438 11.5756 22.9793 11.395 22.9791C11.2144 22.9793 11.0356 22.9438 10.8687 22.8747C10.7019 22.8056 10.5503 22.7042 10.4228 22.5763C9.88521 22.0385 9.88521 21.1696 10.4228 20.6318L14.5548 16.5L10.4227 12.3683C9.88515 11.8305 9.88515 10.9616 10.4227 10.4238C10.9605 9.88631 11.8294 9.88631 12.3672 10.4238L16.4989 14.5559L20.6307 10.4238C21.1685 9.88625 22.0374 9.88625 22.5751 10.4238C23.1127 10.9616 23.1127 11.8305 22.5751 12.3683L18.4431 16.5L22.5751 20.6318Z" fill="#878A99"/>
</svg>
