<svg width="21" height="20" viewBox="0 0 21 20" fill="none" xmlns="http://www.w3.org/2000/svg">
<g clip-path="url(#clip0_381_24570)">
<path d="M11.2458 13.7294L8.26225 16.7131L8.26218 16.7132L8.26211 16.7132C7.02831 17.9471 5.02063 17.9472 3.78669 16.7132C3.18892 16.1155 2.85979 15.3207 2.85979 14.4754C2.85979 13.6303 3.18892 12.8357 3.78648 12.2379L3.78669 12.2377L6.77028 9.254C7.18218 8.84203 7.18218 8.17407 6.77021 7.76217C6.35831 7.35027 5.69035 7.35027 5.27838 7.76217L2.29479 10.7458L2.29415 10.7465C1.2984 11.7426 0.75 13.067 0.75 14.4754C0.75 15.8843 1.29862 17.2088 2.29486 18.2051C3.32317 19.2333 4.67378 19.7475 6.02447 19.7475C7.37516 19.7475 8.72584 19.2333 9.75401 18.2051L9.75409 18.2049L12.7377 15.2213C13.1496 14.8094 13.1496 14.1414 12.7376 13.7294C12.3258 13.3175 11.6579 13.3175 11.2458 13.7294ZM20.25 5.52439C20.25 4.11554 19.7013 2.79102 18.7051 1.79478C16.6485 -0.261705 13.3023 -0.261635 11.2459 1.79478L11.2456 1.79513L8.26211 4.77858C7.85014 5.19048 7.85014 5.85851 8.26211 6.27041C8.35996 6.36853 8.47623 6.44634 8.60425 6.49937C8.73226 6.5524 8.8695 6.57961 9.00806 6.57942C9.27798 6.57942 9.54803 6.4764 9.75394 6.27041L12.7375 3.28696L12.7378 3.28661C13.9716 2.0528 15.9793 2.05273 17.2132 3.28661C17.8109 3.88438 18.1402 4.67914 18.1402 5.52439C18.1402 6.36957 17.8111 7.16419 17.2135 7.76196L17.2132 7.76217L14.2297 10.7458C13.8177 11.1577 13.8177 11.8257 14.2297 12.2377C14.3276 12.3358 14.4438 12.4136 14.5718 12.4666C14.6998 12.5196 14.837 12.5468 14.9756 12.5467C15.2456 12.5467 15.5156 12.4437 15.7216 12.2377L18.7051 9.254L18.7058 9.2533C19.7015 8.2572 20.25 6.93288 20.25 5.52439Z" fill="#1878F1"/>
<path d="M6.76992 13.7295C6.86776 13.8276 6.98402 13.9054 7.11202 13.9584C7.24002 14.0115 7.37724 14.0387 7.5158 14.0385C7.78578 14.0385 8.05576 13.9355 8.26175 13.7295L14.2291 7.76218C14.641 7.35028 14.641 6.68232 14.2291 6.27035C13.8172 5.85845 13.1492 5.85845 12.7372 6.27035L6.76992 12.2376C6.35794 12.6496 6.35794 13.3176 6.76992 13.7295Z" fill="#1878F1"/>
</g>
<defs>
<clipPath id="clip0_381_24570">
<rect width="19.5" height="19.5" fill="white" transform="translate(0.75 0.25)"/>
</clipPath>
</defs>
</svg>
