<svg width="21" height="21" viewBox="0 0 21 21" fill="none" xmlns="http://www.w3.org/2000/svg">
<path fill-rule="evenodd" clip-rule="evenodd" d="M10.1636 16.0794C10.2778 16.1886 10.4327 16.25 10.5942 16.25C10.7557 16.25 10.9105 16.1886 11.0248 16.0794L14.2748 12.9681C14.3347 12.9147 14.3827 12.8503 14.416 12.7788C14.4493 12.7072 14.4672 12.63 14.4687 12.5516C14.4701 12.4733 14.455 12.3955 14.4244 12.3229C14.3938 12.2502 14.3481 12.1842 14.2903 12.1288C14.2324 12.0734 14.1635 12.0298 14.0876 12.0004C14.0117 11.9711 13.9304 11.9567 13.8486 11.9581C13.7668 11.9594 13.6861 11.9766 13.6114 12.0085C13.5366 12.0404 13.4693 12.0863 13.4136 12.1436L11.2035 14.2593V6.33336C11.2035 6.17864 11.1393 6.03026 11.0251 5.92086C10.9108 5.81146 10.7558 5.75 10.5942 5.75C10.4326 5.75 10.2776 5.81146 10.1633 5.92086C10.049 6.03026 9.9848 6.17864 9.9848 6.33336V14.2593L7.7748 12.1436C7.65928 12.0406 7.5065 11.9845 7.34863 11.9872C7.19076 11.9898 7.04013 12.0511 6.92848 12.1579C6.81683 12.2648 6.75288 12.409 6.75009 12.5601C6.74731 12.7113 6.80591 12.8575 6.91355 12.9681L10.1636 16.0794Z" fill="#0C0C20"/>
</svg>
