<svg width="20" height="20" viewBox="0 0 20 20" fill="none" xmlns="http://www.w3.org/2000/svg">
<g clip-path="url(#clip0_362_66439)">
<path d="M10.4958 13.7295L7.51225 16.7132L7.51218 16.7133L7.51211 16.7134C6.27831 17.9472 4.27063 17.9473 3.03669 16.7134C2.43892 16.1156 2.10979 15.3208 2.10979 14.4756C2.10979 13.6304 2.43892 12.8358 3.03648 12.238L3.03669 12.2378L6.02028 9.25412C6.43218 8.84215 6.43218 8.17419 6.02021 7.76229C5.60831 7.35039 4.94035 7.35039 4.52838 7.76229L1.54479 10.746L1.54415 10.7467C0.548404 11.7428 0 13.0671 0 14.4756C0 15.8844 0.548615 17.2089 1.54486 18.2052C2.57317 19.2334 3.92378 19.7476 5.27447 19.7476C6.62516 19.7476 7.97584 19.2334 9.00401 18.2052L9.00409 18.205L11.9877 15.2214C12.3996 14.8095 12.3996 14.1415 11.9876 13.7295C11.5758 13.3176 10.9079 13.3176 10.4958 13.7295ZM19.5 5.52451C19.5 4.11566 18.9513 2.79114 17.9551 1.7949C15.8985 -0.261583 12.5523 -0.261513 10.4959 1.7949L10.4956 1.79525L7.51211 4.7787C7.10014 5.1906 7.10014 5.85863 7.51211 6.27053C7.60996 6.36865 7.72623 6.44646 7.85425 6.49949C7.98226 6.55252 8.1195 6.57973 8.25806 6.57955C8.52798 6.57955 8.79803 6.47652 9.00394 6.27053L11.9875 3.28708L11.9878 3.28673C13.2216 2.05292 15.2293 2.05285 16.4632 3.28673C17.0609 3.8845 17.3902 4.67926 17.3902 5.52451C17.3902 6.36969 17.0611 7.16431 16.4635 7.76208L16.4632 7.76229L13.4797 10.746C13.0677 11.1579 13.0677 11.8258 13.4797 12.2378C13.5776 12.3359 13.6938 12.4137 13.8218 12.4667C13.9498 12.5198 14.087 12.547 14.2256 12.5468C14.4956 12.5468 14.7656 12.4438 14.9716 12.2378L17.9551 9.25412L17.9558 9.25342C18.9515 8.25732 19.5 6.93301 19.5 5.52451Z" fill="white"/>
<path d="M6.01992 13.7295C6.11776 13.8276 6.23402 13.9054 6.36202 13.9584C6.49002 14.0115 6.62724 14.0387 6.7658 14.0385C7.03578 14.0385 7.30576 13.9355 7.51175 13.7295L13.4791 7.76218C13.891 7.35028 13.891 6.68232 13.4791 6.27035C13.0672 5.85845 12.3992 5.85845 11.9872 6.27035L6.01992 12.2376C5.60794 12.6496 5.60794 13.3176 6.01992 13.7295Z" fill="white"/>
</g>
<defs>
<clipPath id="clip0_362_66439">
<rect width="19.5" height="19.5" fill="white" transform="translate(0 0.25)"/>
</clipPath>
</defs>
</svg>
