<svg width="21" height="20" viewBox="0 0 21 20" fill="none" xmlns="http://www.w3.org/2000/svg">
<path d="M20.0096 0.490564C19.9014 0.381837 19.7647 0.305857 19.6152 0.271362C19.4657 0.236867 19.3096 0.245256 19.1646 0.295564L1.30524 6.41401C1.14888 6.4675 1.01231 6.56693 0.913379 6.69929C0.814448 6.83165 0.757764 6.99079 0.750742 7.15589C0.743719 7.32099 0.786685 7.48436 0.874019 7.62465C0.961353 7.76493 1.08899 7.8756 1.24024 7.94216C1.24825 7.94577 1.2565 7.94881 1.26494 7.95126L10.0334 10.4655L12.5476 19.234C12.5501 19.2424 12.5531 19.2507 12.5567 19.2587C12.6202 19.405 12.7252 19.5295 12.8588 19.6168C12.9924 19.704 13.1486 19.7501 13.3081 19.7494H13.3439C13.5091 19.7431 13.6685 19.6867 13.8011 19.5878C13.9336 19.489 14.033 19.3522 14.0862 19.1956L20.2059 1.33686C20.2563 1.19163 20.2645 1.03514 20.2298 0.885408C20.1951 0.735678 20.1188 0.598807 20.0096 0.490564Z" fill="#0C0C20"/>
</svg>
