<svg width="436" height="40" viewBox="0 0 436 40" fill="none" xmlns="http://www.w3.org/2000/svg">
<path d="M128 0L132.49 13.8197H147.021L135.265 22.3607L139.756 36.1803L128 27.6393L116.244 36.1803L120.735 22.3607L108.979 13.8197H123.51L128 0Z" fill="#F7B84B"/>
<path d="M173 0L177.49 13.8197H192.021L180.265 22.3607L184.756 36.1803L173 27.6393L161.244 36.1803L165.735 22.3607L153.979 13.8197H168.51L173 0Z" fill="#F7B84B"/>
<path d="M218 0L222.49 13.8197H237.021L225.265 22.3607L229.756 36.1803L218 27.6393L206.244 36.1803L210.735 22.3607L198.979 13.8197H213.51L218 0Z" fill="#F7B84B"/>
<path d="M263 0L267.49 13.8197H282.021L270.265 22.3607L274.756 36.1803L263 27.6393L251.244 36.1803L255.735 22.3607L243.979 13.8197H258.51L263 0Z" fill="#F7B84B"/>
<path d="M308 0L312.49 13.8197H327.021L315.265 22.3607L319.756 36.1803L308 27.6393L296.244 36.1803L300.735 22.3607L288.979 13.8197H303.51L308 0Z" fill="#F7B84B"/>
</svg>
