<svg width="144" height="45" viewBox="0 0 144 45" fill="none" xmlns="http://www.w3.org/2000/svg">
<path d="M134.249 0.00932962L130.155 20.5169C128.579 28.4065 120.456 35.0652 112.418 35.0652H93.7658C90.8375 35.0652 87.76 32.5379 87.1818 29.6655L84.468 16.0778C84.2243 14.8658 83.5093 13.8003 82.48 13.1156C81.4508 12.4309 80.1917 12.1831 78.9797 12.4267C77.7678 12.6703 76.7022 13.3854 76.0175 14.4147C75.3328 15.4439 75.085 16.703 75.3287 17.915L78.0425 31.5027C79.488 38.7302 86.3984 44.391 93.7752 44.391H112.427C125.035 44.391 136.833 34.7108 139.313 22.3634L143.78 0.0186503L134.249 0.00932962ZM59.6426 0.00932962L53.7113 29.6655C53.1331 32.5472 50.0556 35.0652 47.1273 35.0652H28.4756C20.4367 35.0652 12.3139 28.4065 10.7378 20.5169L9.73998 15.5462C9.61935 14.9455 9.38158 14.3744 9.04025 13.8656C8.69892 13.3568 8.26071 12.9202 7.75064 12.5807C7.24058 12.2412 6.66864 12.0056 6.0675 11.8871C5.46635 11.7687 4.84777 11.7698 4.24706 11.8905C3.64635 12.0111 3.07527 12.2489 2.56645 12.5902C2.05764 12.9315 1.62103 13.3697 1.28156 13.8798C0.942099 14.3899 0.706422 14.9618 0.587989 15.5629C0.469557 16.1641 0.470693 16.7827 0.591324 17.3834V17.3927L1.58918 22.3541C4.06053 34.7015 15.8671 44.3817 28.4663 44.3817H47.118C54.4947 44.3817 61.3958 38.7302 62.8507 31.4934L69.1456 0H59.6426V0.00932962Z" fill="#1878F1"/>
</svg>
