<svg width="145" height="54" viewBox="0 0 145 54" fill="none" xmlns="http://www.w3.org/2000/svg">
<path d="M102.544 25.8328C102.813 27.4529 103.053 29.0586 103.25 30.6403C126.485 32.6113 139.129 36.5439 139.922 38.9764C138.831 42.4571 115.399 48.6587 72.6123 48.6587C29.8209 48.6587 6.39398 42.4571 5.30268 39.1062C5.64882 38.0053 11.3024 34.2843 32.0275 31.6979C32.6602 31.6175 33.2353 31.2894 33.6264 30.7856C34.0175 30.2818 34.1929 29.6434 34.114 29.0105C34.0288 28.3812 33.7 27.8105 33.1983 27.4212C32.6966 27.0319 32.0621 26.8551 31.4314 26.9289C0.5 30.7893 0.5 37.0006 0.5 39.0437C0.5 53.3028 69.6702 53.4662 72.6123 53.4662C75.5545 53.4662 144.725 53.3028 144.725 39.0437C144.725 30.9383 122.375 27.3904 102.544 25.8328Z" fill="#1878F1"/>
<path d="M72.6121 43.8512C48.4641 43.8512 40.9116 41.4234 40.6039 41.3225C40.1254 41.1631 39.7092 40.8573 39.4141 40.4484C39.1191 40.0394 38.9601 39.548 38.9597 39.0437C38.9597 29.573 41.8779 16.3524 44.3297 6.92968C45.6517 1.85297 51.2044 -0.944989 56.1609 1.02608L72.6121 7.61234L89.0634 1.03089C94.0055 -0.949796 99.5725 1.85297 100.895 6.93929C102.899 14.6313 106.265 29.0393 106.265 39.0437C106.264 39.548 106.105 40.0394 105.81 40.4484C105.515 40.8573 105.099 41.1631 104.62 41.3225C104.313 41.4234 96.7602 43.8512 72.6121 43.8512ZM43.8057 37.1544C47.0844 37.8082 55.5504 39.0437 72.6121 39.0437C89.6643 39.0437 98.1303 37.8082 101.419 37.1496C101.039 27.799 98.063 15.1313 96.241 8.14117C95.6208 5.77107 93.1786 4.55959 90.8469 5.49224L73.5063 12.4246C72.9351 12.66 72.294 12.66 71.7228 12.4246L54.3821 5.49224C52.0505 4.55959 49.6035 5.78069 48.9881 8.14117C47.1613 15.1457 44.1855 27.823 43.8057 37.1544Z" fill="#1878F1"/>
</svg>
