<svg width="480" height="281" viewBox="0 0 480 281" fill="none" xmlns="http://www.w3.org/2000/svg">
<path d="M82.3951 223.853H7.73934L0.5 212.105C13.4705 187.554 34.8869 140.186 64.7492 70H71.5361L97.1 83.1035L39.4115 192.901L29.4574 207.586L82.6213 204.423L84.8836 162.176L109.543 160.143V202.616L138.5 201.034V223.853H109.543V260H82.3951V223.853Z" fill="#0C0C20"/>
<path d="M299.203 95.879L295.109 116.386C293.533 124.276 285.41 130.935 277.371 130.935H258.72C255.791 130.935 252.714 128.408 252.136 125.535L249.422 111.947C249.178 110.735 248.463 109.67 247.434 108.985C246.404 108.3 245.145 108.053 243.933 108.296C242.722 108.54 241.656 109.255 240.971 110.284C240.287 111.314 240.039 112.573 240.282 113.785L242.996 127.372C244.442 134.6 251.352 140.261 258.729 140.261H277.381C289.989 140.261 301.786 130.58 304.267 118.233L308.734 95.8883L299.203 95.879ZM224.596 95.879L218.665 125.535C218.087 128.417 215.009 130.935 212.081 130.935H193.429C185.39 130.935 177.268 124.276 175.692 116.386L174.694 111.416C174.573 110.815 174.335 110.244 173.994 109.735C173.653 109.226 173.214 108.79 172.704 108.45C172.194 108.111 171.622 107.875 171.021 107.757C170.42 107.638 169.802 107.639 169.201 107.76C168.6 107.881 168.029 108.118 167.52 108.46C167.011 108.801 166.575 109.239 166.235 109.749C165.896 110.259 165.66 110.831 165.542 111.433C165.423 112.034 165.424 112.652 165.545 113.253V113.262L166.543 118.224C169.014 130.571 180.821 140.251 193.42 140.251H212.072C219.448 140.251 226.35 134.6 227.804 127.363L234.099 95.8696H224.596V95.879ZM244.721 259.613C243.682 259.614 242.671 259.267 241.851 258.627C241.031 257.988 240.448 257.093 240.195 256.084C239.942 255.076 240.034 254.011 240.455 253.061C240.876 252.11 241.603 251.327 242.521 250.837L331.256 203.294L315.458 179.588C314.79 178.586 314.535 177.364 314.747 176.179C314.959 174.993 315.621 173.936 316.596 173.228L361.826 140.335C352.099 135.523 332.869 127.149 314.553 125.88C313.321 125.789 312.174 125.215 311.364 124.282C310.553 123.349 310.144 122.133 310.226 120.9C310.268 120.289 310.429 119.691 310.702 119.142C310.975 118.593 311.354 118.104 311.817 117.702C312.28 117.3 312.817 116.993 313.399 116.799C313.981 116.605 314.595 116.529 315.206 116.573C343.212 118.522 371.767 134.964 372.971 135.672C373.644 136.059 374.21 136.609 374.616 137.27C375.022 137.932 375.256 138.686 375.296 139.461C375.336 140.237 375.181 141.01 374.844 141.71C374.508 142.41 374.002 143.015 373.372 143.469L325.707 178.142L341.869 202.399C342.233 202.938 342.48 203.547 342.593 204.188C342.706 204.829 342.683 205.486 342.524 206.117C342.366 206.748 342.076 207.339 341.674 207.85C341.272 208.362 340.766 208.783 340.19 209.085L246.932 259.044C246.255 259.419 245.495 259.614 244.721 259.613Z" fill="#1878F1"/>
<path d="M249.735 241.074C248.805 241.072 247.897 240.792 247.127 240.27C246.357 239.749 245.761 239.008 245.415 238.145C245.07 237.282 244.99 236.335 245.186 235.426C245.382 234.517 245.846 233.688 246.518 233.044C253.503 226.367 261.178 218.888 269.413 210.662C285.835 194.239 295.739 164.947 298.127 150.333C298.199 149.707 298.397 149.101 298.709 148.553C299.022 148.005 299.442 147.526 299.945 147.146C300.448 146.765 301.023 146.49 301.635 146.338C302.247 146.186 302.884 146.16 303.506 146.261C304.129 146.362 304.725 146.588 305.257 146.926C305.79 147.264 306.249 147.706 306.605 148.226C306.962 148.747 307.209 149.334 307.333 149.952C307.456 150.571 307.452 151.208 307.322 151.825C305.476 163.166 296.243 197.018 276.006 217.256C267.715 225.546 259.984 233.072 252.962 239.787C252.091 240.614 250.936 241.074 249.735 241.074ZM263.379 280.14C262.61 280.137 261.854 279.944 261.178 279.58L130.616 209.636C130.04 209.334 129.535 208.913 129.132 208.401C128.73 207.89 128.44 207.299 128.282 206.668C128.124 206.037 128.1 205.38 128.213 204.739C128.326 204.098 128.573 203.489 128.937 202.95L145.108 178.693L97.4347 144.02C96.804 143.567 96.2969 142.963 95.96 142.263C95.623 141.563 95.4669 140.79 95.5059 140.015C95.5448 139.239 95.7776 138.486 96.183 137.823C96.5884 137.161 97.1534 136.611 97.8264 136.223C99.0294 135.515 127.585 119.073 155.6 117.124C156.83 117.054 158.039 117.467 158.969 118.275C159.9 119.084 160.477 120.223 160.58 121.451C160.665 122.685 160.257 123.902 159.446 124.835C158.634 125.769 157.486 126.343 156.253 126.431C137.946 127.699 118.716 136.074 108.98 140.886L154.21 173.778C155.185 174.486 155.847 175.544 156.059 176.73C156.272 177.915 156.017 179.137 155.348 180.139L139.541 203.845L231.261 252.983C218.895 241.475 206.738 229.744 194.796 217.796C174.858 197.858 165.429 163.837 163.48 152.404C163.273 151.184 163.558 149.932 164.273 148.923C164.988 147.914 166.075 147.23 167.295 147.023C168.514 146.815 169.766 147.1 170.775 147.815C171.784 148.531 172.468 149.618 172.676 150.837C174.373 160.741 183.27 193.074 201.399 211.203C239.682 249.486 266.111 271.681 266.382 271.905C267.264 272.649 267.841 273.692 268.001 274.835C268.161 275.978 267.893 277.14 267.249 278.097C266.818 278.726 266.24 279.241 265.566 279.596C264.892 279.952 264.141 280.139 263.379 280.14ZM293.464 49.353C293.986 52.4958 294.452 55.6107 294.835 58.6789C339.907 62.5025 364.434 70.131 365.972 74.8499C363.855 81.6018 318.401 93.6321 235.401 93.6321C152.392 93.6321 106.947 81.6018 104.83 75.1017C105.502 72.9661 116.469 65.7479 156.672 60.7306C157.9 60.5746 159.015 59.9382 159.774 58.9609C160.533 57.9836 160.873 56.7452 160.72 55.5174C160.555 54.2967 159.917 53.1896 158.944 52.4344C157.97 51.6792 156.74 51.3362 155.516 51.4793C95.5135 58.968 95.5136 71.017 95.5136 74.9804C95.5136 102.641 229.694 102.958 235.401 102.958C241.109 102.958 375.289 102.641 375.289 74.9804C375.289 59.2571 331.933 52.3746 293.464 49.353Z" fill="#1878F1"/>
<path d="M235.401 84.3064C188.557 84.3064 173.906 79.5968 173.31 79.401C172.381 79.0919 171.574 78.4986 171.002 77.7053C170.429 76.912 170.121 75.9588 170.12 74.9805C170.12 56.6086 175.781 30.9625 180.537 12.6839C183.102 2.83579 193.873 -2.59185 203.488 1.23175L235.401 14.0082L267.314 1.24107C276.901 -2.60117 287.7 2.83579 290.265 12.7025C294.154 27.6239 300.682 55.5734 300.682 74.9805C300.681 75.9588 300.373 76.912 299.8 77.7053C299.228 78.4986 298.421 79.0919 297.493 79.401C296.896 79.5968 282.245 84.3064 235.401 84.3064ZM179.521 71.3155C185.881 72.5838 202.304 74.9805 235.401 74.9805C268.48 74.9805 284.903 72.5838 291.281 71.3061C290.545 53.1674 284.772 28.5938 281.238 15.034C280.035 10.4364 275.297 8.08625 270.774 9.89546L237.136 23.3433C236.028 23.7998 234.784 23.7998 233.676 23.3433L200.037 9.89546C195.514 8.08625 190.768 10.455 189.574 15.034C186.03 28.6218 180.257 53.214 179.521 71.3155Z" fill="#1878F1"/>
<path d="M411.605 216.243H321.261L312.5 202.021C328.196 172.303 354.113 114.962 390.251 30H398.464L429.4 45.8621L359.589 178.775L347.543 196.552L411.879 192.723L414.616 141.581L444.457 139.12V190.535L479.5 188.621V216.243H444.457V260H411.605V216.243Z" fill="#0C0C20"/>
</svg>
