<svg width="38" height="27" viewBox="0 0 38 27" fill="none" xmlns="http://www.w3.org/2000/svg">
<path d="M9.5 2.1002C9.5 1.05089 10.3507 0.200195 11.4 0.200195H36.1C37.1493 0.200195 38 1.05089 38 2.1002C38 3.1495 37.1493 4.0002 36.1 4.0002H11.4C10.3507 4.0002 9.5 3.14943 9.5 2.1002ZM36.1 11.6002H1.9C0.850695 11.6002 0 12.451 0 13.5002C0 14.5495 0.850695 15.4002 1.9 15.4002H36.1C37.1493 15.4002 38 14.5495 38 13.5002C38 12.451 37.1493 11.6002 36.1 11.6002ZM36.1 23.0002H19C17.9508 23.0002 17.1 23.8509 17.1 24.9002C17.1 25.9494 17.9508 26.8002 19 26.8002H36.1C37.1493 26.8002 38 25.9494 38 24.9002C38 23.8509 37.1493 23.0002 36.1 23.0002Z" fill="#0C0C20"/>
</svg>
