<svg width="38" height="39" viewBox="0 0 38 39" fill="none" xmlns="http://www.w3.org/2000/svg">
<g clip-path="url(#clip0_1996_19643)">
<path d="M30.8084 31.498C29.9337 32.3584 28.5278 32.3468 27.6674 31.4722L7.85739 11.3343C6.99698 10.4597 7.00852 9.0538 7.88317 8.19339C8.75782 7.33298 10.1637 7.34452 11.0241 8.21917L30.8341 28.357C31.6945 29.2317 31.683 30.6375 30.8084 31.498Z" fill="#0C0C20"/>
<path d="M30.9721 11.5237L10.8343 31.3337C9.95963 32.1942 8.55374 32.1826 7.69333 31.308C6.83292 30.4333 6.84446 29.0274 7.7191 28.167L27.8569 8.35701C28.7316 7.4966 30.1375 7.50814 30.9979 8.38279C31.8583 9.25744 31.8468 10.6633 30.9721 11.5237Z" fill="#0C0C20"/>
</g>
<defs>
<clipPath id="clip0_1996_19643">
<rect width="38" height="38" fill="white" transform="translate(0 0.5)"/>
</clipPath>
</defs>
</svg>
