<svg width="47" height="44" viewBox="0 0 47 44" fill="none" xmlns="http://www.w3.org/2000/svg">
<g clip-path="url(#clip0_1519_592)">
<path d="M18.7616 23.4716C16.8621 23.4716 14.9432 23.3474 13.0729 23.2327C11.4169 23.1276 9.71228 23.0224 8.03684 23.0033C5.68927 22.9746 3.30274 23.1084 0.994141 23.2327V23.1753C3.30274 23.0511 5.68927 22.9173 8.03684 22.946C9.72202 22.9651 11.4267 23.0702 13.0826 23.1753C15.1185 23.2996 17.2225 23.4334 19.2876 23.4047C21.2845 23.376 23.3204 23.2136 25.2783 23.0415C28.1713 22.8026 31.1521 22.5446 34.0938 22.7548V22.8122C31.1618 22.6019 28.1713 22.8504 25.288 23.0989C23.3204 23.2614 21.2942 23.4334 19.2876 23.4621C19.1123 23.4621 18.9369 23.4716 18.7616 23.4716Z" fill="#FBFBFB"/>
<path d="M34.0939 22.583C34.2108 22.5926 34.2985 22.6881 34.2887 22.8028C34.279 22.9175 34.1816 23.0035 34.0647 22.994C33.9478 22.9844 33.8601 22.8888 33.8699 22.7741C33.8796 22.669 33.977 22.583 34.0939 22.583Z" fill="#FBFBFB"/>
<path d="M18.9077 22.7454C17.4855 22.7454 16.0341 22.7071 14.534 22.6593C10.0435 22.516 5.48471 22.3057 0.994141 22.0381V21.9808C5.48471 22.2484 10.0337 22.4587 14.534 22.602C19.1999 22.7549 23.408 22.8123 27.5674 21.9044C29.4669 21.4934 31.3469 20.8722 33.1587 20.2701L34.8244 19.7158L34.8439 19.7732L33.1782 20.3275C31.3566 20.9295 29.4864 21.5507 27.5771 21.9617C24.762 22.5638 21.9079 22.7454 18.9077 22.7454Z" fill="#FBFBFB"/>
<path d="M34.7753 19.5343C34.8825 19.496 35.0091 19.5534 35.0481 19.6681C35.0871 19.7732 35.0286 19.8974 34.9117 19.9356C34.8046 19.9739 34.6779 19.9165 34.639 19.8018C34.6 19.6967 34.6585 19.5725 34.7753 19.5343Z" fill="#FBFBFB"/>
<path d="M21.3527 25.2207C18.6155 25.2207 15.8588 24.9913 13.18 24.7811C9.1765 24.4561 5.04634 24.1216 0.994116 24.5326L0.984375 24.4752C5.0366 24.0643 9.1765 24.3988 13.18 24.7237C16.112 24.9627 19.1512 25.2111 22.1319 25.1633C26.3011 25.0964 28.1908 24.265 29.3695 23.5578C31.1326 22.497 32.4184 20.8341 33.6555 19.2381C34.3081 18.3875 34.99 17.5178 35.7303 16.7342C36.0225 16.4283 36.3245 16.1321 36.6265 15.8358L36.7239 15.7402L36.7628 15.7785L36.6654 15.874C36.3634 16.1607 36.0615 16.4666 35.7693 16.7628C35.0289 17.5465 34.3471 18.4162 33.6944 19.2667C32.4476 20.8723 31.1618 22.5352 29.3889 23.6056C27.129 24.9627 24.3237 25.1825 22.1222 25.2207C21.8787 25.2207 21.6157 25.2207 21.3527 25.2207Z" fill="#FBFBFB"/>
<path d="M36.597 15.6158C36.6749 15.5298 36.8113 15.5298 36.899 15.6158C36.9866 15.6922 36.9866 15.826 36.899 15.912C36.821 15.9981 36.6847 15.9981 36.597 15.912C36.5093 15.8356 36.5093 15.7018 36.597 15.6158Z" fill="#FBFBFB"/>
<path d="M12.8194 23.5001C11.6602 23.5001 10.501 23.4715 9.35159 23.4141C8.52361 23.3663 7.68589 23.2994 6.86765 23.2421C4.94869 23.0892 2.9518 22.9363 1.00361 23.0319L0.886719 23.0414L0.984128 22.9841C2.1433 22.3055 3.43884 21.9519 4.82206 21.9328C6.9748 21.9041 9.15677 22.0666 11.2608 22.2195C12.381 22.3055 13.5402 22.382 14.6896 22.4393C17.456 22.5731 21.0699 22.6018 24.4695 21.5888C27.8496 20.5853 30.5673 18.6452 32.1161 16.1509L32.1649 16.1796C30.616 18.693 27.8886 20.6331 24.489 21.6461C21.0797 22.6591 17.4658 22.64 14.6896 22.5062C13.5499 22.4489 12.381 22.3629 11.2608 22.2864C9.15677 22.1335 6.9748 21.971 4.8318 21.9997C3.49729 22.0188 2.25045 22.3438 1.1205 22.9841C3.03946 22.8981 4.99739 23.051 6.87739 23.1943C7.68589 23.2612 8.53335 23.3281 9.35159 23.3663C13.2187 23.5766 17.1443 23.3759 20.9433 23.1657C22.609 23.0796 24.3234 22.9841 25.9696 22.5731C29.2815 21.7512 32.4279 19.6296 35.5937 16.084L35.6326 16.1222C32.4571 19.6678 29.301 21.799 25.9794 22.6209C24.3331 23.0319 22.609 23.1274 20.9433 23.2134C18.2743 23.3568 15.5468 23.5001 12.8194 23.5001Z" fill="#FBFBFB"/>
<path d="M31.9503 16.0553C32.0088 15.9597 32.1451 15.9311 32.2426 15.9884C32.34 16.0457 32.3692 16.1795 32.3107 16.2751C32.2523 16.3707 32.1159 16.3994 32.0185 16.342C31.9211 16.2847 31.8821 16.1509 31.9503 16.0553Z" fill="#FBFBFB"/>
<path d="M35.7591 16.2465C35.837 16.1605 35.8272 16.0267 35.7396 15.9503C35.6519 15.8738 35.5155 15.8834 35.4376 15.9694C35.3597 16.0554 35.3694 16.1892 35.4571 16.2657C35.5448 16.3421 35.6811 16.3326 35.7591 16.2465Z" fill="#FBFBFB"/>
<path d="M32.6619 28.1927C31.3956 27.2752 30.2462 26.482 28.9214 26.0042C27.8791 25.6314 26.7686 25.469 25.8238 25.3638C23.5054 25.1058 21.1384 25.0771 19.0538 25.0485C13.0632 24.9624 6.98481 24.9242 0.994141 24.9338V24.8764C6.98481 24.8669 13.0632 24.9051 19.0538 24.9911C21.1481 25.0198 23.5152 25.0485 25.8335 25.3065C26.7881 25.4116 27.8986 25.5645 28.9506 25.9468C30.2851 26.4247 31.4346 27.2274 32.7009 28.1449L32.6619 28.1927Z" fill="#FBFBFB"/>
<path d="M32.7886 27.9918C32.886 28.0587 32.9055 28.1924 32.8373 28.288C32.7691 28.3836 32.6328 28.4027 32.5354 28.3358C32.438 28.2689 32.4185 28.1351 32.4867 28.0395C32.5646 27.944 32.701 27.9249 32.7886 27.9918Z" fill="#FBFBFB"/>
<path d="M12.5275 20.4131C10.3747 20.4131 8.19274 20.2602 6.07896 20.1073C4.423 19.9926 2.69885 19.8684 1.01367 19.8206V19.7633C2.70859 19.811 4.423 19.9257 6.0887 20.05C8.24144 20.2029 10.4721 20.3653 12.6736 20.3558C17.2908 20.3367 20.9826 19.553 23.9438 17.9475C24.6744 17.5556 25.6875 16.9057 26.0771 15.9214L26.1258 15.9405C25.7362 16.944 24.7036 17.5938 23.9731 17.9952C21.0021 19.6104 17.3005 20.394 12.6736 20.4131C12.6249 20.4131 12.5762 20.4131 12.5275 20.4131Z" fill="#FBFBFB"/>
<path d="M25.8919 15.8737C25.9309 15.7685 26.0478 15.7016 26.1647 15.7399C26.2718 15.7781 26.34 15.8928 26.301 16.0075C26.2621 16.1126 26.1452 16.1795 26.0283 16.1413C25.9114 16.103 25.8529 15.9884 25.8919 15.8737Z" fill="#FBFBFB"/>
<path d="M39.4611 28.2598C38.2434 28.2598 37.1135 27.543 36.0128 26.8453C35.8277 26.7307 35.6329 26.6064 35.438 26.4917C33.597 25.364 31.3663 24.5612 28.6291 24.026C23.408 23.0035 17.992 23.2519 12.7417 23.4909C8.87453 23.6629 4.88075 23.854 0.984375 23.5291V23.4717C4.88075 23.7967 8.87453 23.6151 12.7319 23.4335C17.9823 23.1946 23.408 22.9461 28.6291 23.9687C31.3761 24.5039 33.6068 25.3162 35.4478 26.4439C35.6329 26.5586 35.8277 26.6829 36.0225 26.7976C37.2304 27.5621 38.487 28.3553 39.8312 28.1737L39.841 28.2311C39.7241 28.2502 39.5974 28.2598 39.4611 28.2598Z" fill="#FBFBFB"/>
<path d="M39.8121 27.9922C39.929 27.9731 40.0362 28.0495 40.0556 28.1642C40.0751 28.2789 39.9972 28.384 39.8803 28.4031C39.7634 28.4222 39.6563 28.3458 39.6368 28.2311C39.6173 28.1164 39.6952 28.0113 39.8121 27.9922Z" fill="#FBFBFB"/>
<path d="M21.3332 26.1667C19.3071 26.1667 17.281 25.9947 15.3036 25.8323C14.9821 25.8036 14.6607 25.7749 14.3392 25.7558C9.89735 25.3926 5.36782 25.1633 0.994141 24.9339V24.8766C5.36782 25.0964 9.89735 25.3353 14.3392 25.6985C14.6607 25.7271 14.9821 25.7558 15.3036 25.7749C17.9921 26.0043 20.778 26.2336 23.5152 26.033C25.1127 25.9183 26.7199 25.6507 28.2688 25.3926C30.0903 25.0964 31.98 24.781 33.86 24.7141C34.7952 24.6759 35.7498 24.7045 36.6752 24.7237C38.6136 24.7714 40.63 24.8192 42.5197 24.3223L42.5295 24.3796C40.63 24.8766 38.6136 24.8288 36.6654 24.781C35.74 24.7619 34.7854 24.7332 33.86 24.7714C31.9898 24.8383 30.1 25.1537 28.2785 25.45C26.7199 25.708 25.1127 25.9756 23.5152 26.0903C22.7943 26.1381 22.0638 26.1667 21.3332 26.1667Z" fill="#FBFBFB"/>
<path d="M42.4614 24.1502C42.5783 24.1215 42.6952 24.1884 42.7244 24.3031C42.7537 24.4178 42.6855 24.5325 42.5686 24.5611C42.4517 24.5898 42.3348 24.5229 42.3056 24.4082C42.2764 24.2935 42.3445 24.1788 42.4614 24.1502Z" fill="#FBFBFB"/>
<path d="M30.6845 29.0241C21.0604 26.0806 10.8519 26.1379 0.984375 26.1953V26.1379C10.8617 26.0806 21.0702 26.0328 30.704 28.9763L30.6845 29.0241Z" fill="#FBFBFB"/>
<path d="M30.7431 28.8043C30.86 28.8329 30.9184 28.9572 30.8892 29.0623C30.86 29.177 30.7334 29.2343 30.6262 29.2056C30.5093 29.177 30.4509 29.0527 30.4801 28.9476C30.5093 28.8329 30.636 28.766 30.7431 28.8043Z" fill="#FBFBFB"/>
<path d="M23.1742 21.092C21.0312 21.092 18.8882 20.7097 16.8036 20.3465C15.6932 20.1554 14.5535 19.9451 13.4138 19.8018C10.0045 19.3717 6.51722 19.4577 3.13712 19.5342C2.31888 19.5533 1.54935 19.6107 1.02334 20.0981L0.984375 20.0598C1.52987 19.5533 2.30914 19.496 3.13712 19.4769C6.51722 19.4004 10.0045 19.3144 13.4235 19.7445C14.5535 19.8878 15.7029 20.0885 16.8134 20.2892C19.1025 20.6906 21.4793 21.1111 23.8366 21.0251C24.5672 20.9964 25.5218 20.92 26.3887 20.5377C27.4213 20.0885 28.22 19.2666 28.8629 18.5307C29.9831 17.2405 30.9572 15.8261 31.756 14.3257L31.8047 14.3544C31.0059 15.8643 30.0318 17.2788 28.9019 18.569C28.2492 19.3144 27.4407 20.1363 26.4082 20.595C25.5315 20.9773 24.5769 21.0537 23.8366 21.0824C23.6223 21.092 23.3983 21.092 23.1742 21.092Z" fill="#FBFBFB"/>
<path d="M31.5906 14.2396C31.6491 14.1345 31.7757 14.0962 31.8829 14.1536C31.99 14.2109 32.029 14.3352 31.9705 14.4403C31.9121 14.5454 31.7854 14.5836 31.6783 14.5263C31.5711 14.469 31.5322 14.3447 31.5906 14.2396Z" fill="#FBFBFB"/>
<path d="M1.02344 17.7374V17.6801C2.9424 17.5845 4.91007 17.575 6.79981 17.5654C9.99484 17.5463 13.3068 17.5272 16.531 17.1162C20.1449 16.6575 22.7262 15.7592 24.6549 14.2778L24.6939 14.3256C22.7555 15.8165 20.1644 16.7244 16.5407 17.1736C13.3165 17.5845 10.0046 17.6036 6.79981 17.6228C4.90033 17.6323 2.9424 17.6419 1.02344 17.7374Z" fill="#FBFBFB"/>
<path d="M24.5282 14.1344C24.6256 14.0675 24.7522 14.0771 24.8302 14.1727C24.8984 14.2682 24.8886 14.3925 24.7912 14.4689C24.6938 14.5358 24.5672 14.5263 24.4892 14.4307C24.4211 14.3351 24.4405 14.2013 24.5282 14.1344Z" fill="#FBFBFB"/>
<path d="M1.03313 17.6422L1.00391 17.5944C4.64702 15.5875 8.10505 15.3581 10.891 15.1861C11.4267 15.1478 11.943 15.1192 12.4203 15.0714C12.8586 15.0332 13.3164 14.9949 13.745 14.9567C17.0959 14.6796 20.554 14.3833 23.3009 12.5006C23.4373 12.405 23.5931 12.2903 23.6711 12.147L23.7198 12.1756C23.6321 12.3286 23.4762 12.4432 23.3301 12.5484C20.5734 14.4406 17.1057 14.7369 13.745 15.014C13.3067 15.0523 12.8586 15.0905 12.4203 15.1287C11.943 15.1765 11.4364 15.2052 10.891 15.2434C8.11479 15.4154 4.6665 15.6352 1.03313 17.6422Z" fill="#FBFBFB"/>
<path d="M23.4857 12.099C23.5247 11.9939 23.6513 11.9365 23.7585 11.9748C23.8656 12.013 23.9241 12.1372 23.8851 12.2424C23.8462 12.3475 23.7195 12.4048 23.6124 12.3666C23.5052 12.3188 23.4468 12.2041 23.4857 12.099Z" fill="#FBFBFB"/>
<path d="M1.39306 18.9513C1.32487 18.9513 1.25669 18.9513 1.19824 18.9417V18.8844C3.09772 19.0086 4.99721 17.2597 6.8285 15.5681C8.56239 13.9721 10.345 12.3283 12.147 12.2327C16.2577 12.0129 17.9721 11.0477 19.0047 10.2354L19.0436 10.2831C17.076 11.8409 14.329 12.1754 12.1568 12.2901C10.3742 12.3857 8.59161 14.0294 6.86747 15.6159C5.09462 17.2597 3.25358 18.9513 1.39306 18.9513Z" fill="#FBFBFB"/>
<path d="M18.8778 10.1016C18.9655 10.0252 19.1019 10.0443 19.1798 10.1303C19.2577 10.2163 19.2383 10.3501 19.1506 10.4265C19.0629 10.503 18.9266 10.4839 18.8486 10.3979C18.7707 10.3119 18.7902 10.1781 18.8778 10.1016Z" fill="#FBFBFB"/>
<path d="M26.905 28.8712C23.7099 27.3421 19.872 26.4915 15.4788 26.3577C11.3195 26.2335 6.99448 26.74 3.51697 27.1509C2.53313 27.2656 1.598 27.4281 1.00381 28.0684L0.964844 28.0302C1.57852 27.3707 2.52339 27.2178 3.51697 27.0936C6.99448 26.6826 11.3292 26.1666 15.4886 26.2908C19.8817 26.4246 23.7391 27.2752 26.9342 28.8043L26.905 28.8712Z" fill="#FBFBFB"/>
<path d="M26.9927 28.6512C27.0998 28.699 27.1388 28.8232 27.0901 28.9284C27.0414 29.0335 26.9147 29.0717 26.8076 29.0239C26.7004 28.9761 26.6615 28.8519 26.7102 28.7468C26.7589 28.6416 26.8855 28.6034 26.9927 28.6512Z" fill="#FBFBFB"/>
<path d="M7.42311 26.3096C5.35803 26.3096 3.14684 26.1567 0.974609 25.6024L0.98435 25.5451C4.16964 26.3479 7.43285 26.3096 10.209 26.1663C14.0664 25.9656 17.9628 25.4782 21.7228 25.0099C25.1321 24.5894 28.6486 24.1498 32.0287 23.2705C33.5873 22.8692 35.3504 22.2957 36.6556 21.1298C37.5031 20.3748 38.1168 19.4 38.711 18.4539C39.1786 17.7084 39.6656 16.9439 40.2598 16.2749C41.1754 15.2619 42.3444 14.4877 43.6496 14.0386L43.6691 14.0959C42.3736 14.5355 41.2047 15.3001 40.2988 16.3131C39.7046 16.9725 39.2273 17.7371 38.7597 18.4825C38.1655 19.4287 37.5518 20.413 36.6946 21.168C35.3893 22.3435 33.6067 22.9169 32.0482 23.3279C28.6681 24.2071 25.1419 24.6467 21.7423 25.0672C17.9725 25.5355 14.0859 26.0229 10.2285 26.2236C9.34207 26.2714 8.3972 26.3096 7.42311 26.3096Z" fill="#FBFBFB"/>
<path d="M43.5812 13.8859C43.6884 13.8477 43.815 13.905 43.854 14.0101C43.893 14.1153 43.8345 14.2395 43.7274 14.2777C43.6202 14.316 43.4936 14.2586 43.4546 14.1535C43.4157 14.0484 43.4644 13.9241 43.5812 13.8859Z" fill="#FBFBFB"/>
<path d="M39.1104 28.298C37.0258 28.298 34.9997 27.5908 33.0418 26.9027C32.2333 26.616 31.3956 26.3292 30.5676 26.0903C28.0252 25.3544 25.327 25.0773 22.7261 24.8001C22.2878 24.7524 21.8592 24.7141 21.4209 24.6663C20.3591 24.5517 19.2681 24.4179 18.2161 24.2936C12.5176 23.6055 6.62437 22.8983 0.994116 24.1407L0.984375 24.0834C6.62438 22.8505 12.5274 23.5577 18.2258 24.2363C19.2778 24.3605 20.3591 24.4943 21.4306 24.609C21.8689 24.6568 22.2975 24.7046 22.7359 24.7428C25.3464 25.0104 28.0349 25.2971 30.5871 26.033C31.415 26.2719 32.2528 26.5682 33.0613 26.8453C35.0582 27.543 37.1232 28.2693 39.2565 28.2406V28.298C39.2078 28.298 39.1591 28.298 39.1104 28.298Z" fill="#FBFBFB"/>
<path d="M39.2465 28.0591C39.3634 28.0591 39.4608 28.1546 39.4608 28.2693C39.4608 28.384 39.3634 28.4796 39.2465 28.4796C39.1296 28.4796 39.0322 28.384 39.0322 28.2693C39.0322 28.1546 39.1296 28.0591 39.2465 28.0591Z" fill="#FBFBFB"/>
<path d="M23.632 29.3778C21.1286 28.5081 19.122 26.6732 17.1835 24.8956C16.4822 24.2553 15.7614 23.5863 15.0211 22.9746C14.2515 22.3439 13.3261 21.6558 12.2546 21.3404C10.5305 20.8339 8.70894 21.3309 6.94583 21.8087L6.61463 21.8947C5.81588 22.105 4.7736 22.363 3.74106 22.4108C2.65982 22.4586 1.75391 22.2865 0.984375 21.866L1.0136 21.8183C2.68904 22.7166 4.78334 22.3343 6.60489 21.8469L6.93609 21.7609C8.70894 21.2831 10.5402 20.7861 12.2741 21.2926C13.3554 21.608 14.2905 22.3057 15.06 22.9364C15.8003 23.5481 16.5212 24.2075 17.2225 24.8574C19.161 26.6349 21.1578 28.4603 23.6515 29.33L23.632 29.3778Z" fill="#FBFBFB"/>
<path d="M23.7097 29.1486C23.8168 29.1868 23.8753 29.3111 23.8363 29.4162C23.7973 29.5213 23.6707 29.5787 23.5635 29.5404C23.4564 29.5022 23.398 29.378 23.4369 29.2728C23.4759 29.1677 23.5928 29.1104 23.7097 29.1486Z" fill="#FBFBFB"/>
<path d="M21.567 29.9514C19.8526 29.5595 18.3914 28.4892 16.979 27.457C15.6834 26.5109 14.3489 25.5361 12.8099 25.0678C11.0857 24.5422 9.19598 24.6855 7.36469 24.8193C5.18272 24.9818 2.92282 25.1538 0.984375 24.1503L1.0136 24.1025C2.93256 25.0965 5.18272 24.9244 7.36469 24.762C9.19598 24.6282 11.0955 24.4848 12.8293 25.0104C14.3782 25.4787 15.7224 26.4631 17.018 27.4092C18.4304 28.4414 19.8818 29.5022 21.5864 29.894L21.567 29.9514Z" fill="#FBFBFB"/>
<path d="M21.6159 29.7219C21.7328 29.7505 21.801 29.8557 21.7815 29.9703C21.7523 30.085 21.6452 30.1519 21.5283 30.1328C21.4114 30.1041 21.3432 29.999 21.3627 29.8843C21.3822 29.7697 21.499 29.6932 21.6159 29.7219Z" fill="#FBFBFB"/>
<path d="M25.5121 29.5401C23.5152 28.0301 21.0312 27.2369 18.5181 27.3038C17.5148 27.3325 16.5017 27.4949 15.5276 27.6574C14.3782 27.8485 13.1995 28.0397 12.0209 28.011C10.9202 27.9823 9.81943 27.7625 8.74792 27.5523C8.35829 27.4758 7.95891 27.3994 7.56927 27.3229C5.39704 26.9406 3.18585 26.8355 0.994141 27.0075V26.9502C3.19559 26.7782 5.41652 26.8833 7.58875 27.2656C7.98813 27.3325 8.38751 27.4185 8.77715 27.4949C9.83891 27.7052 10.9396 27.925 12.0404 27.9537C13.219 27.9823 14.3977 27.7912 15.5374 27.6001C16.5114 27.4376 17.5245 27.2751 18.5376 27.2465C21.0605 27.1796 23.5639 27.9728 25.5608 29.4923L25.5121 29.5401Z" fill="#FBFBFB"/>
<path d="M25.6487 29.3489C25.7461 29.4158 25.7558 29.5496 25.6876 29.6452C25.6194 29.7408 25.4831 29.7503 25.3857 29.6834C25.2883 29.6165 25.2785 29.4827 25.3467 29.3872C25.4149 29.2916 25.5513 29.2725 25.6487 29.3489Z" fill="#FBFBFB"/>
<path d="M1.38379 19.1902V19.1329C3.18586 19.1138 4.93923 17.7758 6.63415 16.4856C8.33882 15.1859 10.0922 13.8384 11.9235 13.8193C13.9399 13.8001 16.0147 13.781 18.0018 13.2841C20.1253 12.7584 21.869 11.6881 22.9113 10.2832L22.96 10.3119C21.9177 11.7359 20.1546 12.8062 18.0213 13.3414C16.0244 13.8384 13.9399 13.8575 11.9235 13.8766C10.1214 13.8957 8.36804 15.2337 6.67312 16.5239C4.96845 17.8236 3.21508 19.1711 1.38379 19.1902Z" fill="#FBFBFB"/>
<path d="M22.765 10.1875C22.8332 10.0919 22.9695 10.0728 23.0669 10.1397C23.1644 10.2066 23.1838 10.3404 23.1157 10.436C23.0475 10.5315 22.9111 10.5506 22.8137 10.4838C22.7163 10.4073 22.6968 10.2735 22.765 10.1875Z" fill="#FBFBFB"/>
<path d="M6.41989 18.139C5.45554 18.139 4.48144 18.0339 3.53657 17.9287L1.01367 17.642L1.02341 17.5847L3.54631 17.8714C4.82238 18.0147 6.1374 18.1581 7.43295 18.0434C8.446 17.9479 9.87792 17.6325 10.9981 16.6863C12.206 15.6446 12.771 14.0964 13.3165 12.6055C13.4236 12.3093 13.5308 12.013 13.6477 11.7167C14.5243 9.46132 15.7127 8.11379 17.2031 7.7124L17.2226 7.76974C15.7614 8.16158 14.573 9.48999 13.7061 11.7359C13.5892 12.0226 13.4821 12.3284 13.3749 12.6151C12.8294 14.1155 12.2644 15.6733 11.0371 16.7246C9.91688 17.6898 8.46549 18.0052 7.44269 18.1008C7.10175 18.1294 6.76082 18.139 6.41989 18.139Z" fill="#FBFBFB"/>
<path d="M17.1348 7.54031C17.2516 7.51164 17.3685 7.57854 17.3978 7.69322C17.427 7.80791 17.3588 7.92259 17.2419 7.95126C17.125 7.97993 17.0081 7.91303 16.9789 7.79835C16.9594 7.68367 17.0276 7.56898 17.1348 7.54031Z" fill="#FBFBFB"/>
<path d="M25.7556 25.9757C22.921 25.9757 20.0961 25.8228 17.3199 25.6699C11.9429 25.3736 6.39059 25.0678 0.994116 25.9088L0.984375 25.8515C6.38085 25.0105 11.9429 25.3163 17.3199 25.6126C21.9469 25.8706 26.7297 26.1382 31.3956 25.6699C34.5516 25.3545 35.9154 24.7142 36.831 24.1312C37.9122 23.4431 38.7792 22.4683 39.6169 21.5222C39.7825 21.3406 39.9481 21.159 40.104 20.9775C42.4028 18.4449 44.5263 16.9444 46.7862 16.2563L46.8057 16.3137C44.5556 17.0018 42.4418 18.4927 40.1527 21.0157C39.9871 21.1973 39.8215 21.3788 39.6656 21.5604C38.8279 22.5066 37.9512 23.4909 36.87 24.179C35.9543 24.762 34.5808 25.4119 31.415 25.7272C29.535 25.8993 27.6453 25.9757 25.7556 25.9757Z" fill="#FBFBFB"/>
<path d="M46.7275 16.0748C46.8444 16.0366 46.9613 16.1035 46.9905 16.2086C47.0295 16.3233 46.9613 16.438 46.8541 16.4667C46.7372 16.5049 46.6203 16.438 46.5911 16.3329C46.5522 16.2277 46.6106 16.1131 46.7275 16.0748Z" fill="#FBFBFB"/>
<path d="M37.133 32.9237C36.5972 32.8759 36.0517 32.895 35.516 32.9045C35.1361 32.9141 34.7464 32.9237 34.3665 32.9141C33.8016 32.895 33.373 32.7516 32.9249 32.5987C32.6327 32.5032 32.3404 32.398 31.9898 32.3311C30.704 32.0635 27.2264 29.4736 26.3303 28.5657C25.6192 27.8394 25.0055 26.9984 24.4113 26.1956C24.2555 25.9758 24.0996 25.7655 23.934 25.5457C21.1481 21.8185 18.2745 19.5249 15.1379 18.5501C13.1898 17.9384 11.2611 17.8906 9.5564 18.4067C8.66997 18.6743 7.82251 19.1139 7.01401 19.5344C6.49774 19.802 5.97173 20.0696 5.42624 20.3085C4.22811 20.8246 2.48448 21.2929 0.984375 20.5952L1.00386 20.5475C2.48448 21.2356 4.20862 20.7768 5.39702 20.2608C5.93277 20.0314 6.46852 19.7542 6.97505 19.4866C7.79329 19.0661 8.63101 18.6265 9.52717 18.3589C11.2416 17.8333 13.18 17.8811 15.1477 18.5023C18.294 19.4866 21.1773 21.7803 23.9632 25.5171C24.1191 25.7273 24.2847 25.9471 24.4405 26.1669C25.0347 26.9697 25.6387 27.8107 26.3498 28.537C26.8173 29.0149 27.9375 29.9037 29.0285 30.6587C29.8078 31.2034 31.23 32.1304 31.98 32.2929C32.3307 32.3694 32.6327 32.4649 32.9249 32.57C33.373 32.723 33.7918 32.8663 34.3471 32.8759C34.727 32.8854 35.1166 32.8759 35.4965 32.8663C36.0225 32.8568 36.5777 32.8376 37.1135 32.8854L37.133 32.9237Z" fill="#FBFBFB"/>
<path d="M37.0259 33.0766C37.1331 33.1339 37.2597 33.0957 37.3182 32.9906C37.3766 32.8855 37.3377 32.7612 37.2305 32.7039C37.1234 32.6465 36.9967 32.6848 36.9383 32.7899C36.8798 32.895 36.9188 33.0193 37.0259 33.0766Z" fill="#FBFBFB"/>
<path d="M32.4476 29.1389C31.3663 29.1389 29.7298 28.7853 27.8401 27.218C27.0413 26.5586 26.3303 25.794 25.6289 25.0486C24.986 24.3605 24.3139 23.6533 23.5833 23.0225C20.3883 20.2606 16.9497 20.0216 14.797 20.7097C14.1054 20.9296 13.443 21.264 12.8001 21.589C12.3033 21.8375 11.787 22.1051 11.261 22.3057C9.10829 23.1468 6.66331 23.1372 4.51057 23.1276C3.38062 23.1276 2.09482 23.1181 0.974609 22.6402L0.994091 22.5925C2.10456 23.0607 3.38062 23.0703 4.50083 23.0703C6.65357 23.0799 9.08881 23.0894 11.2318 22.2484C11.7578 22.0382 12.2741 21.7801 12.7709 21.5316C13.4138 21.2067 14.0762 20.8722 14.7775 20.6428C16.1997 20.1841 17.8167 20.1937 19.4337 20.662C20.924 21.092 22.3657 21.8948 23.6125 22.9652C24.3431 23.5959 25.0152 24.3031 25.6581 24.9912C26.3497 25.7271 27.0706 26.4917 27.8596 27.1511C30.2169 29.1198 32.1943 29.1581 33.1587 29.0051L33.1684 29.0625C32.9833 29.1198 32.7398 29.1389 32.4476 29.1389Z" fill="#FBFBFB"/>
<path d="M33.1393 28.852C33.2562 28.8329 33.3633 28.9094 33.3828 29.0241C33.4023 29.1388 33.3243 29.2439 33.2074 29.263C33.0906 29.2821 32.9834 29.2057 32.9639 29.091C32.9444 28.9763 33.0224 28.8712 33.1393 28.852Z" fill="#FBFBFB"/>
<path d="M34.3367 29.5115C33.5477 29.5115 32.7489 29.3968 31.9891 29.1865C30.6741 28.8043 29.4662 28.1162 28.2973 27.4376C27.9271 27.2274 27.5472 27.0076 27.1674 26.7973C25.3263 25.7938 23.4268 25.0484 21.5176 24.5801C19.8422 24.1692 18.3518 24.0163 16.9491 24.1023C15.8679 24.1787 14.7866 24.4081 13.7346 24.6279C13.1891 24.7426 12.6144 24.8668 12.0592 24.9624C8.48425 25.5836 4.78269 25.2969 1.34414 24.1214C1.20777 24.0736 1.05191 24.0163 0.983727 23.8825C0.944763 23.806 0.954504 23.6913 1.02269 23.6244C1.0714 23.5671 1.12984 23.548 1.18829 23.5575L1.17855 23.6149C1.1201 23.5958 1.08114 23.634 1.0714 23.6626C1.02269 23.72 1.01295 23.806 1.04217 23.8633C1.10062 23.978 1.23699 24.0258 1.36362 24.0736C4.78269 25.2395 8.4745 25.5262 12.0494 24.9146C12.6144 24.819 13.1794 24.6948 13.7249 24.5801C14.7769 24.3603 15.8581 24.1214 16.9394 24.0545C18.3421 23.9589 19.8422 24.1118 21.5274 24.5323C23.4366 25.0006 25.3458 25.7556 27.1868 26.7591C27.5667 26.9693 27.9466 27.1796 28.3168 27.3994C29.4857 28.0684 30.6838 28.766 31.9989 29.1388C33.3139 29.521 34.7263 29.5688 36.0706 29.2821L36.0803 29.3395C35.5056 29.4541 34.9211 29.5115 34.3367 29.5115Z" fill="#FBFBFB"/>
<path d="M36.0223 29.0911C36.1392 29.072 36.2464 29.1389 36.2756 29.2536C36.2951 29.3683 36.2269 29.4734 36.11 29.5021C35.9931 29.5212 35.886 29.4543 35.8567 29.3396C35.8275 29.2249 35.9055 29.1198 36.0223 29.0911Z" fill="#FBFBFB"/>
<path d="M33.899 30.8115C29.1259 30.8115 24.1191 29.139 19.7259 26.0235C19.3753 25.775 19.0246 25.5169 18.6836 25.2589C17.4076 24.3128 16.0926 23.338 14.5827 22.7932C12.1085 21.9044 9.41028 22.2676 6.79971 22.6308C4.88075 22.8888 2.90334 23.1564 0.984375 22.9461L0.994116 22.8888C2.90334 23.0991 4.88075 22.8315 6.79971 22.5734C9.41028 22.2198 12.1183 21.8471 14.6022 22.7454C16.1218 23.2902 17.4368 24.265 18.7129 25.2111C19.0538 25.4596 19.4045 25.7272 19.7552 25.9757C25.1809 29.8271 31.5612 31.4613 37.2499 30.4579L37.2596 30.5152C36.1686 30.7159 35.0387 30.8115 33.899 30.8115Z" fill="#FBFBFB"/>
<path d="M37.2203 30.2764C37.3372 30.2573 37.4444 30.3337 37.4638 30.4484C37.4833 30.5631 37.4054 30.6682 37.2885 30.6873C37.1716 30.7064 37.0645 30.63 37.045 30.5153C37.0255 30.4102 37.1034 30.2955 37.2203 30.2764Z" fill="#FBFBFB"/>
<path d="M19.4142 30.9929C18.2258 30.0467 16.7939 29.3969 15.284 29.1388C13.9398 28.9095 12.5468 28.9668 11.2026 29.0337C11.0273 29.0433 10.8422 29.0528 10.6668 29.0624C8.96217 29.1388 7.15036 29.1484 5.42622 28.7566C3.54622 28.3169 1.95844 27.3995 0.974609 26.1666L1.02331 26.1284C2.00715 27.3517 3.57544 28.2596 5.4457 28.6992C7.1601 29.1006 8.97192 29.0815 10.6668 29.005C10.8422 28.9955 11.0273 28.9859 11.2026 28.9764C12.5566 28.9095 13.9495 28.8426 15.2938 29.0815C16.8134 29.3491 18.255 29.9894 19.4532 30.9451L19.4142 30.9929Z" fill="#FBFBFB"/>
<path d="M19.551 30.8016C19.6386 30.878 19.6581 31.0023 19.5899 31.0978C19.512 31.1838 19.3854 31.203 19.288 31.1361C19.2003 31.0596 19.1808 30.9354 19.249 30.8398C19.3269 30.7442 19.4536 30.7251 19.551 30.8016Z" fill="#FBFBFB"/>
<path d="M17.5245 31.9393C16.6965 30.974 15.2646 30.4484 13.2872 30.3815C12.8975 30.3719 12.5079 30.3719 12.1183 30.3719C10.8812 30.3719 9.6051 30.3719 8.42645 29.9514C7.16987 29.5023 6.11785 28.5944 5.09505 27.7151C3.80925 26.6065 2.59163 25.5553 0.984375 25.3259L0.994116 25.2686C2.62085 25.5075 3.89691 26.6065 5.13401 27.6769C6.14707 28.5561 7.19909 29.4545 8.44593 29.9037C9.6051 30.3242 10.8812 30.3242 12.1183 30.3242C12.4982 30.3242 12.8975 30.3242 13.2872 30.3337C15.2938 30.4006 16.7355 30.9358 17.5732 31.9106L17.5245 31.9393Z" fill="#FBFBFB"/>
<path d="M17.6993 31.7865C17.7773 31.8725 17.7578 32.0063 17.6701 32.0828C17.5825 32.1592 17.4461 32.1401 17.3682 32.0541C17.2902 31.9681 17.3097 31.8343 17.3974 31.7579C17.4948 31.6814 17.6214 31.7005 17.6993 31.7865Z" fill="#FBFBFB"/>
<path d="M19.6772 38.9061C18.8006 38.6385 18.0115 38.132 17.4174 37.4535C16.7452 36.6985 16.3361 35.7715 15.9367 34.8731C15.664 34.2519 15.3815 33.6116 15.0113 33.0382C13.9983 31.4422 12.2936 31.0981 10.6084 30.9644C10.3454 30.9452 10.0727 30.9261 9.81942 30.907C8.73818 30.8401 7.61797 30.7637 6.58543 30.4005C5.20222 29.9131 4.02357 28.8905 3.36119 27.6003C3.16637 27.218 3.00077 26.7975 2.84492 26.3962C2.42606 25.3449 1.99746 24.2458 0.994141 23.768L1.02336 23.7202C2.0559 24.2172 2.4845 25.3162 2.90336 26.377C3.05922 26.7784 3.22481 27.1989 3.41963 27.5716C4.07227 28.8523 5.24119 29.8557 6.61466 30.3432C7.63746 30.7063 8.75766 30.7828 9.82917 30.8497C10.0922 30.8688 10.3552 30.8879 10.6182 30.907C12.3228 31.0408 14.0372 31.3944 15.06 33.0095C15.4302 33.5925 15.7127 34.2328 15.9854 34.854C16.3848 35.7428 16.7939 36.6698 17.4563 37.4153C18.0505 38.0842 18.8298 38.5812 19.6967 38.8488L19.6772 38.9061Z" fill="#FBFBFB"/>
<path d="M19.7457 38.6768C19.8626 38.7151 19.9211 38.8297 19.8821 38.9349C19.8431 39.0496 19.7262 39.1069 19.6191 39.0687C19.5022 39.0304 19.4438 38.9158 19.4827 38.8106C19.5119 38.6959 19.6288 38.6386 19.7457 38.6768Z" fill="#FBFBFB"/>
<path d="M13.1021 36.6601C12.2741 35.2074 11.4072 33.8408 10.0142 33.1049C9.39083 32.78 8.60181 32.6462 7.83228 32.5124C6.82896 32.3404 5.79642 32.1683 5.09507 31.5662C3.91642 30.5532 3.69238 28.4507 3.56575 27.1892C3.53652 26.912 3.5073 26.6253 3.47808 26.3482C3.35145 25.058 3.23456 23.8347 2.93259 22.5732C2.55269 20.9485 1.91953 20.0215 0.994141 19.7444L1.01362 19.687C1.95849 19.9833 2.60139 20.9199 2.98129 22.5636C3.27352 23.8347 3.40015 25.0484 3.52678 26.3386C3.55601 26.6158 3.58523 26.8929 3.61445 27.1796C3.74108 28.4316 3.96513 30.5245 5.13404 31.5185C5.82564 32.1014 6.84844 32.283 7.84202 32.4455C8.61155 32.5793 9.41031 32.7131 10.0435 33.038C11.4559 33.7739 12.3228 35.1501 13.1508 36.6123L13.1021 36.6601Z" fill="#FBFBFB"/>
<path d="M13.3068 36.5357C13.3652 36.6312 13.3263 36.765 13.2289 36.8224C13.1315 36.8797 12.9951 36.8415 12.9366 36.7459C12.8782 36.6503 12.9172 36.5166 13.0146 36.4592C13.112 36.4019 13.2484 36.4305 13.3068 36.5357Z" fill="#FBFBFB"/>
<path d="M27.431 34.873C26.3302 34.873 25.2685 34.701 24.5963 33.8887C22.5702 31.423 20.5246 29.158 17.6998 28.5846C16.9595 28.4317 16.1899 28.403 15.4496 28.3839C15.2548 28.3743 15.06 28.3743 14.8749 28.3648C13.5696 28.3074 11.8942 28.1354 10.5304 27.2944C9.17645 26.4629 8.28028 25.0772 7.42308 23.7201C7.48153 23.8539 7.53997 23.9782 7.58868 24.1119C8.13417 25.3735 8.70888 26.6828 9.74142 27.5907C10.9201 28.6228 12.5273 28.9764 14.0761 29.3205C15.5568 29.6454 17.0861 29.9894 18.2647 30.9069C18.7031 31.251 19.0927 31.6715 19.4629 32.0729C19.9304 32.5794 20.4175 33.1146 21.0117 33.4777L20.9825 33.5255C20.3785 33.1528 19.8915 32.6272 19.4239 32.1111C19.0538 31.7097 18.6641 31.2892 18.2355 30.9547C17.0666 30.0468 15.5373 29.7123 14.0664 29.3874C12.5078 29.0433 10.8909 28.6897 9.70246 27.648C8.66018 26.7305 8.08547 25.4212 7.53997 24.1502C7.43282 23.9017 7.32567 23.6532 7.20878 23.4047C6.31262 21.9903 5.36774 20.5759 3.90661 19.8305C3.61438 19.7253 3.29293 19.6393 2.96173 19.5724C2.80588 19.5437 2.5721 19.5342 2.32857 19.5246C1.79282 19.5055 1.19863 19.4864 0.994067 19.2093L0.964844 19.171H1.01355C1.86101 19.1328 2.85458 19.3144 3.68256 19.6775C3.77023 19.7158 3.84816 19.754 3.92609 19.7922C4.41313 19.9738 4.85148 20.2032 5.22163 20.4899C6.17624 21.2258 6.7607 22.2866 7.25749 23.3856C7.30619 23.4525 7.34515 23.529 7.39386 23.5959C8.27054 24.9816 9.17645 26.4152 10.5597 27.2657C11.9137 28.0972 13.5794 28.2692 14.8846 28.3265C15.0795 28.3361 15.2645 28.3457 15.4594 28.3457C16.2094 28.3743 16.9789 28.3934 17.7192 28.5464C20.5539 29.1293 22.6189 31.4039 24.6451 33.8695C25.5412 34.959 27.1777 34.873 28.6194 34.787H28.6973V34.8444H28.6194C28.2297 34.8539 27.8303 34.873 27.431 34.873ZM4.32547 19.9834C5.46515 20.7001 6.27365 21.8278 7.0237 22.9842C6.56588 22.0381 6.02039 21.1397 5.18267 20.4994C4.9294 20.2987 4.64692 20.1267 4.32547 19.9834ZM1.07199 19.1901C1.28629 19.4099 1.84153 19.4291 2.32857 19.4386C2.5721 19.4482 2.80588 19.4577 2.97148 19.4864C3.12733 19.5151 3.28319 19.5533 3.4293 19.5915C2.67925 19.3144 1.82205 19.1615 1.07199 19.1901Z" fill="#FBFBFB"/>
<path d="M21.099 33.2963C21.1964 33.3536 21.2354 33.4874 21.1672 33.583C21.1087 33.6786 20.9724 33.7168 20.875 33.6499C20.7776 33.5926 20.7386 33.4588 20.8068 33.3632C20.8652 33.2772 21.0016 33.239 21.099 33.2963Z" fill="#FBFBFB"/>
<path d="M28.6977 35.0069C28.8146 34.9974 28.9022 34.9018 28.9022 34.7871C28.8925 34.6724 28.7951 34.5864 28.6782 34.5864C28.5613 34.596 28.4736 34.6916 28.4736 34.8062C28.4736 34.9209 28.5808 35.0165 28.6977 35.0069Z" fill="#FBFBFB"/>
<path d="M22.2002 32.8853C21.4696 32.6177 20.8559 32.1112 20.2617 31.6142C19.8526 31.2701 19.4337 30.9261 18.9759 30.649C17.7485 29.9226 16.2777 29.7697 14.8457 29.6264C13.6476 29.5021 12.4105 29.3779 11.3 28.9191C9.21549 28.0495 7.88098 26.1572 6.58544 24.3223C6.11787 23.6629 5.64057 22.9748 5.1243 22.3536C4.69569 21.8279 4.1015 21.1685 3.34171 20.7289C2.57217 20.2893 1.72471 20.1459 1.00388 20.3275L0.994141 20.2701C1.73445 20.079 2.60139 20.2319 3.37093 20.6811C4.14046 21.1207 4.73466 21.7897 5.173 22.3249C5.67953 22.9461 6.16658 23.6342 6.63414 24.2936C7.91994 26.119 9.25445 28.0017 11.3195 28.8714C12.4203 29.3301 13.6574 29.4543 14.8457 29.5786C16.2777 29.7219 17.7583 29.8748 18.9954 30.6107C19.4532 30.8879 19.8818 31.2415 20.2909 31.576C20.8851 32.0634 21.4891 32.5794 22.2099 32.8375L22.2002 32.8853Z" fill="#FBFBFB"/>
<path d="M22.2682 32.6558C22.3753 32.6941 22.4435 32.8087 22.4046 32.9234C22.3656 33.0286 22.2487 33.0955 22.1318 33.0572C22.0247 33.019 21.9565 32.9043 21.9955 32.7896C22.0442 32.675 22.161 32.6176 22.2682 32.6558Z" fill="#FBFBFB"/>
<path d="M34.1225 40.1104C30.9957 39.8523 28.0637 37.7785 26.8266 34.9687C26.7292 34.7585 26.6512 34.5387 26.5636 34.3284C26.3882 33.8888 26.2129 33.4205 25.9499 33.0096C25.2583 31.8914 24.0699 31.1746 23.0081 30.5343C22.7744 30.391 22.5211 30.2476 22.2873 30.1138C21.7418 29.7985 21.1768 29.4735 20.6606 29.1008C18.0305 27.1799 14.9329 25.8801 11.6989 25.3545C11.358 25.2971 11.0073 25.2494 10.6664 25.2016C9.22472 25.0009 7.7441 24.8002 6.51674 24.0261C5.99073 23.7011 5.53291 23.2806 5.08482 22.8697C4.74389 22.5639 4.40296 22.2389 4.02306 21.9713C2.64959 20.9583 1.58783 21.1303 1.19819 21.2546L1.17871 21.1972C1.57809 21.073 2.65933 20.8914 4.05229 21.914C4.43218 22.1912 4.77311 22.5065 5.11405 22.8219C5.56213 23.2329 6.01995 23.6438 6.53622 23.9687C7.75384 24.7333 9.23446 24.934 10.6664 25.1347C11.0073 25.1825 11.358 25.2302 11.6989 25.2876C14.9426 25.8132 18.05 27.113 20.6898 29.0435C21.1963 29.4162 21.7613 29.7411 22.3068 30.0565C22.5503 30.1903 22.7938 30.3336 23.0374 30.477C24.0991 31.1173 25.2973 31.8436 25.9889 32.9713C26.2421 33.3918 26.4272 33.8506 26.6025 34.2998C26.6902 34.51 26.7681 34.7298 26.8655 34.9401C28.0929 37.7402 31.0152 39.795 34.1225 40.053V40.1104Z" fill="#FBFBFB"/>
<path d="M1.27607 21.4267C1.16892 21.4649 1.04229 21.4076 1.00332 21.3024C0.964359 21.1973 1.0228 21.0731 1.12995 21.0348C1.2371 20.9966 1.36374 21.0539 1.4027 21.1591C1.44166 21.2642 1.39296 21.3789 1.27607 21.4267Z" fill="#FBFBFB"/>
<path d="M34.093 40.2826C34.2099 40.2921 34.3171 40.2061 34.3268 40.0914C34.3365 39.9767 34.2489 39.8716 34.132 39.8621C34.0151 39.8525 33.9079 39.9385 33.8982 40.0532C33.8885 40.1774 33.9761 40.273 34.093 40.2826Z" fill="#FBFBFB"/>
<path d="M32.0969 27.0075C30.5579 27.0075 29.0675 26.6921 27.7817 26.0709C26.2621 25.335 24.9763 24.1882 23.7295 23.0796C22.317 21.8181 20.8559 20.5088 19.0538 19.8303C16.7939 18.9797 14.0762 19.2377 11.9429 20.5088C11.6312 20.6904 11.3195 20.9006 11.0273 21.1109C10.5013 21.474 9.96554 21.8372 9.3616 22.0952C7.74461 22.7833 5.95227 22.554 4.20865 22.3342C3.14689 22.2004 2.0559 22.0666 0.994141 22.1239V22.0666C2.0559 21.9997 3.15663 22.143 4.21839 22.2768C6.0302 22.5062 7.73487 22.726 9.33238 22.0379C9.92657 21.7894 10.4623 21.4167 10.9883 21.0631C11.2903 20.8624 11.5923 20.6522 11.904 20.461C14.047 19.1804 16.7939 18.9224 19.0733 19.7729C20.8754 20.4515 22.3463 21.7608 23.7684 23.0318C25.0153 24.1404 26.2913 25.2873 27.8109 26.0136C29.9442 27.0457 32.6327 27.2273 35.1848 26.5201C37.4447 25.8989 39.6169 24.6278 41.6236 22.7547C41.9158 22.4775 42.208 22.1908 42.5002 21.9137C43.6205 20.8146 44.7796 19.6678 46.2602 19.123L46.2797 19.1708C44.8088 19.7156 43.6594 20.8528 42.5392 21.9423C42.2567 22.2195 41.9548 22.5157 41.6625 22.7833C39.6462 24.6661 37.4642 25.9371 35.1945 26.5583C34.1717 26.8641 33.1295 27.0075 32.0969 27.0075Z" fill="#FBFBFB"/>
<path d="M46.1827 18.9704C46.2898 18.9322 46.4165 18.9895 46.4554 19.0946C46.4944 19.1997 46.436 19.324 46.3288 19.3622C46.2217 19.4004 46.095 19.3431 46.0561 19.238C46.0171 19.1328 46.0755 19.0086 46.1827 18.9704Z" fill="#FBFBFB"/>
<path d="M2.65015 17.8235C2.10466 17.8235 1.54942 17.7758 1.01367 17.6706L1.02341 17.6133C2.3287 17.8618 3.70217 17.8044 4.9003 17.4604C6.22507 17.0781 7.28683 16.3613 7.9687 15.3865C8.65056 14.4117 8.94279 13.2171 9.22528 12.0607C9.27398 11.8791 9.31295 11.6976 9.36165 11.516C9.85844 9.5377 10.5695 7.59765 11.4754 5.76272C11.9527 4.79748 12.5567 3.67932 13.4528 2.78097C15.1185 1.09895 17.7778 0.229274 20.5637 0.468197L20.554 0.525539C17.7876 0.286616 15.1478 1.14674 13.4918 2.8192C12.6054 3.71755 11.9917 4.82615 11.5241 5.7914C10.6182 7.62632 9.90714 9.55682 9.41036 11.5351C9.36165 11.7167 9.32269 11.8983 9.27398 12.0798C8.9915 13.2362 8.69927 14.4308 8.00766 15.4248C7.31605 16.4091 6.24455 17.1354 4.91004 17.5177C4.2087 17.7184 3.43916 17.8235 2.65015 17.8235Z" fill="#FBFBFB"/>
<path d="M20.5734 0.296136C20.6903 0.305692 20.7779 0.410818 20.7682 0.525501C20.7585 0.640184 20.6513 0.726196 20.5344 0.716639C20.4175 0.707083 20.3299 0.601957 20.3396 0.487274C20.3493 0.372591 20.4565 0.286579 20.5734 0.296136Z" fill="#FBFBFB"/>
<path d="M1.02344 18.2635V18.2061C3.35152 18.015 4.3938 17.1453 4.85162 16.4381C5.22178 15.8742 5.37763 15.2052 5.48478 14.6318C5.88416 12.386 5.68934 10.0636 5.50427 7.81775C5.38738 6.40333 5.26074 4.93157 5.28997 3.49803C5.28997 3.32601 5.29971 3.14443 5.29971 2.95329C5.30945 2.42766 5.31919 1.89247 5.33867 1.32861H5.39712C5.35815 1.89247 5.35815 2.43721 5.34841 2.96284C5.34841 3.14443 5.33867 3.32601 5.33867 3.50759C5.30945 4.94112 5.43608 6.41289 5.55297 7.82731C5.73805 10.0732 5.93287 12.3955 5.53349 14.6509C5.42634 15.2339 5.27048 15.9029 4.90033 16.4763C4.42302 17.1835 3.371 18.0723 1.02344 18.2635Z" fill="#FBFBFB"/>
<path d="M5.14423 1.33807C5.14423 1.22339 5.24164 1.12782 5.35853 1.13738C5.47542 1.13738 5.57283 1.23295 5.56309 1.34763C5.56309 1.46231 5.46568 1.55788 5.34879 1.54833C5.2319 1.54833 5.13449 1.45276 5.14423 1.33807Z" fill="#FBFBFB"/>
<path d="M2.20204 20.815C1.82214 20.815 1.42277 20.8054 1.00391 20.7959V20.7385C2.65012 20.7768 4.0236 20.7768 5.40681 20.4709C7.00432 20.1173 8.32909 19.3528 9.12784 18.3111C10.1409 17.0018 10.3455 15.2529 10.4136 14.0583C10.5987 10.7611 10.0045 7.55956 9.27396 4.01395L9.3324 4.00439C10.0727 7.55001 10.6669 10.7611 10.4721 14.0583C10.4039 15.2624 10.1896 17.0209 9.17655 18.3398C8.36805 19.391 7.03354 20.1651 5.42629 20.5187C4.38401 20.7577 3.35147 20.815 2.20204 20.815Z" fill="#FBFBFB"/>
<path d="M9.08924 4.07106C9.06976 3.95637 9.13794 3.85125 9.25484 3.82258C9.37173 3.80346 9.47888 3.87036 9.5081 3.98504C9.52758 4.09973 9.4594 4.20485 9.3425 4.23352C9.22561 4.25264 9.11846 4.18574 9.08924 4.07106Z" fill="#FBFBFB"/>
<path d="M1.0621 28.3168L0.90625 28.1544L0.964696 28.097L1.11081 9.55664H1.21796L1.0621 28.3168Z" fill="#FBFBFB"/>
<path d="M1.03296 39.4987H0.935547L1.08166 16.7246L1.24726 16.8775L1.17907 16.9349L1.03296 39.4987Z" fill="#FBFBFB"/>
<path d="M31.8919 14.5742C31.8335 14.5455 31.7653 14.5647 31.7263 14.622C31.6874 14.6793 31.7068 14.7558 31.7653 14.7845C31.8237 14.8131 31.8919 14.794 31.9309 14.7367C31.9698 14.6793 31.9504 14.6124 31.8919 14.5742Z" fill="#FBFBFB"/>
<path d="M31.0836 18.4256C31.0446 18.3683 30.9667 18.3587 30.9082 18.397C30.8498 18.4352 30.8206 18.5116 30.8595 18.569C30.8985 18.6168 30.9764 18.6359 31.0349 18.5977C31.1031 18.5594 31.1225 18.483 31.0836 18.4256Z" fill="#FBFBFB"/>
<path d="M40.5905 18.5594C40.5807 18.4925 40.5125 18.4543 40.4541 18.4639C40.3859 18.4734 40.3372 18.5308 40.3469 18.5977C40.3567 18.6646 40.4249 18.7028 40.4833 18.6932C40.5418 18.6837 40.6002 18.6263 40.5905 18.5594Z" fill="#FBFBFB"/>
<path d="M28.4633 21.5412C28.4146 21.5029 28.3366 21.5125 28.2977 21.5603C28.2587 21.6176 28.2587 21.6845 28.3171 21.7227C28.3659 21.761 28.4438 21.7514 28.4827 21.6941C28.5217 21.6463 28.512 21.5794 28.4633 21.5412Z" fill="#FBFBFB"/>
<path d="M27.6937 20.2512C27.645 20.2034 27.5768 20.2034 27.5281 20.2512C27.4794 20.299 27.4696 20.3659 27.5183 20.4136C27.5573 20.4614 27.6352 20.4614 27.6839 20.4136C27.7327 20.3659 27.7326 20.299 27.6937 20.2512Z" fill="#FBFBFB"/>
<path d="M22.8717 23.0798C22.8425 23.0225 22.7743 22.9938 22.7158 23.0225C22.6574 23.0511 22.6184 23.118 22.6476 23.1754C22.6671 23.2327 22.745 23.2614 22.8035 23.2327C22.8619 23.2041 22.8912 23.1372 22.8717 23.0798Z" fill="#FBFBFB"/>
<path d="M25.9596 22.535C25.9206 22.4777 25.8524 22.4681 25.7842 22.5063C25.7258 22.5446 25.6966 22.6115 25.7355 22.6688C25.7647 22.7261 25.8427 22.7357 25.9109 22.6975C25.979 22.6592 25.9985 22.5828 25.9596 22.535Z" fill="#FBFBFB"/>
<path d="M30.9954 17.0398C30.9565 17.1067 30.976 17.1927 31.0441 17.2309C31.1123 17.2692 31.2 17.2405 31.239 17.1641C31.2779 17.0972 31.2584 17.0016 31.1903 16.9729C31.1221 16.9347 31.0344 16.9634 30.9954 17.0398Z" fill="#FBFBFB"/>
<path d="M41.4283 17.5849C41.3504 17.6041 41.2919 17.6805 41.3114 17.7474C41.3309 17.8239 41.4088 17.8621 41.4867 17.843C41.5647 17.8239 41.6231 17.7474 41.6036 17.6805C41.5841 17.6041 41.5062 17.5658 41.4283 17.5849Z" fill="#FBFBFB"/>
<path d="M29.573 17.3456C29.534 17.4125 29.5535 17.4985 29.612 17.5367C29.6802 17.575 29.7678 17.5558 29.8068 17.4889C29.8458 17.422 29.8263 17.336 29.7678 17.2978C29.6996 17.2596 29.612 17.2787 29.573 17.3456Z" fill="#FBFBFB"/>
<path d="M29.4856 19.1331C29.4369 19.2 29.4369 19.286 29.4953 19.3338C29.5538 19.3816 29.6414 19.3625 29.6999 19.2956C29.7583 19.2287 29.7486 19.1427 29.6804 19.0949C29.6317 19.0471 29.544 19.0662 29.4856 19.1331Z" fill="#FBFBFB"/>
<path d="M13.5589 25.0488C13.5589 24.9819 13.5005 24.9341 13.4323 24.9341C13.3641 24.9341 13.3057 24.9819 13.3057 25.0488C13.3057 25.1157 13.3641 25.1634 13.4323 25.1634C13.5005 25.1634 13.5589 25.1061 13.5589 25.0488Z" fill="#FBFBFB"/>
<path d="M17.2125 24.3417C17.2028 24.2748 17.1444 24.2365 17.0762 24.2461C17.008 24.2556 16.9593 24.313 16.969 24.3703C16.9788 24.4372 17.0372 24.4754 17.1054 24.4754C17.1736 24.4659 17.2223 24.4085 17.2125 24.3417Z" fill="#FBFBFB"/>
<path d="M22.9203 23.8635C22.9009 23.8062 22.8229 23.7775 22.7548 23.8062C22.6866 23.8348 22.6573 23.9017 22.6768 23.9591C22.6963 24.0164 22.7742 24.0451 22.8424 24.0164C22.9106 23.9878 22.9496 23.9209 22.9203 23.8635Z" fill="#FBFBFB"/>
<path d="M15.1274 25.1826C15.1274 25.1157 15.069 25.0679 15.0008 25.0679C14.9326 25.0679 14.8741 25.1252 14.8839 25.1826C14.8839 25.2495 14.9423 25.2972 15.0105 25.2972C15.0787 25.3068 15.1371 25.2495 15.1274 25.1826Z" fill="#FBFBFB"/>
<path d="M6.37074 24.332C6.38048 24.2651 6.33178 24.2078 6.26359 24.2078C6.1954 24.1982 6.13696 24.246 6.12722 24.3033C6.11748 24.3702 6.16618 24.4276 6.23437 24.4276C6.29281 24.4371 6.361 24.3893 6.37074 24.332Z" fill="#FBFBFB"/>
<path d="M0.662533 23.5962C0.672274 23.5293 0.613829 23.4815 0.545642 23.4719C0.477456 23.4624 0.41901 23.5101 0.409269 23.577C0.399528 23.6439 0.457974 23.6917 0.52616 23.7013C0.594347 23.7108 0.662533 23.6631 0.662533 23.5962Z" fill="#FBFBFB"/>
<path d="M3.53578 24.8003C3.54552 24.7334 3.49682 24.676 3.42863 24.676C3.36044 24.6665 3.302 24.7143 3.29226 24.7716C3.28252 24.8385 3.33122 24.8958 3.39941 24.8958C3.46759 24.9054 3.53578 24.8672 3.53578 24.8003Z" fill="#FBFBFB"/>
<path d="M10.9098 25.3834C10.8318 25.3738 10.7539 25.4311 10.7539 25.5076C10.7539 25.5841 10.8124 25.6414 10.8903 25.651C10.9682 25.6605 11.0461 25.6032 11.0461 25.5267C11.0461 25.4598 10.9877 25.3929 10.9098 25.3834Z" fill="#FBFBFB"/>
<path d="M20.7967 23.3955C20.7188 23.4147 20.6798 23.4911 20.6993 23.5676C20.7188 23.6345 20.7967 23.6823 20.8746 23.6536C20.9526 23.6345 20.9915 23.558 20.972 23.4816C20.9526 23.4147 20.8746 23.3764 20.7967 23.3955Z" fill="#FBFBFB"/>
<path d="M9.99468 24.2652C9.91675 24.2556 9.84856 24.313 9.83882 24.3894C9.82908 24.4659 9.89727 24.5328 9.97519 24.5328C10.0531 24.5424 10.1213 24.485 10.131 24.4086C10.131 24.3417 10.0726 24.2748 9.99468 24.2652Z" fill="#FBFBFB"/>
<path d="M8.34832 25.0772C8.27039 25.0677 8.19246 25.125 8.19246 25.2015C8.18272 25.2779 8.24117 25.3448 8.32884 25.3448C8.40677 25.3544 8.48469 25.297 8.48469 25.2206C8.49443 25.1441 8.43599 25.0772 8.34832 25.0772Z" fill="#FBFBFB"/>
<path d="M18.6536 7.71224C18.5952 7.68357 18.527 7.71224 18.488 7.77914C18.4491 7.84604 18.4686 7.92249 18.527 7.95117C18.5855 7.97984 18.6634 7.95117 18.6926 7.88427C18.7316 7.81737 18.7121 7.74091 18.6536 7.71224Z" fill="#FBFBFB"/>
<path d="M17.7192 3.81322C17.6997 3.75588 17.6218 3.72721 17.5633 3.75588C17.4952 3.78455 17.4659 3.85145 17.4854 3.90879C17.5146 3.96613 17.5828 3.9948 17.6413 3.96613C17.7095 3.93746 17.7387 3.87056 17.7192 3.81322Z" fill="#FBFBFB"/>
<path d="M14.0663 20.4327C13.9982 20.4231 13.9495 20.4805 13.9397 20.5569C13.93 20.6334 13.9787 20.6907 14.0469 20.7003C14.1151 20.7003 14.1638 20.6525 14.1735 20.576C14.1735 20.4996 14.1248 20.4327 14.0663 20.4327Z" fill="#FBFBFB"/>
<path d="M15.1177 10.3499C15.0885 10.4264 15.1177 10.5124 15.1859 10.5411C15.2541 10.5697 15.3418 10.5315 15.371 10.4551C15.4002 10.3786 15.371 10.2926 15.3028 10.2639C15.2249 10.2352 15.147 10.2735 15.1177 10.3499Z" fill="#FBFBFB"/>
<path d="M17.7283 23.0035C17.6504 23.0513 17.6309 23.1468 17.6699 23.2137C17.7186 23.2711 17.8062 23.2806 17.8842 23.2233C17.9621 23.1755 17.9816 23.0799 17.9426 23.0226C17.9037 22.9557 17.8062 22.9461 17.7283 23.0035Z" fill="#FBFBFB"/>
<path d="M16.8515 12.816C16.8223 12.8925 16.8612 12.9785 16.9392 12.9976C17.0074 13.0167 17.0853 12.9689 17.1145 12.8925C17.1437 12.816 17.1048 12.73 17.0268 12.7109C16.9489 12.6918 16.8807 12.73 16.8515 12.816Z" fill="#FBFBFB"/>
<path d="M7.14035 13.9434C7.07217 13.953 7.0332 14.0103 7.0332 14.0868C7.04294 14.1632 7.09165 14.211 7.15984 14.211C7.22802 14.211 7.27673 14.1441 7.26699 14.0677C7.25724 13.9912 7.1988 13.9339 7.14035 13.9434Z" fill="#FBFBFB"/>
<path d="M6.29296 10.0825C6.22478 10.0825 6.17607 10.1494 6.18581 10.2259C6.19555 10.3023 6.24426 10.3597 6.31244 10.3501C6.38063 10.3501 6.42933 10.2832 6.41959 10.2068C6.41959 10.1399 6.36115 10.0825 6.29296 10.0825Z" fill="#FBFBFB"/>
<path d="M7.16965 12.29C7.10146 12.2996 7.0625 12.3569 7.0625 12.4334C7.07224 12.5098 7.13069 12.5576 7.18913 12.5576C7.25732 12.5481 7.29628 12.4907 7.29628 12.4143C7.28654 12.3474 7.23784 12.29 7.16965 12.29Z" fill="#FBFBFB"/>
<path d="M6.13705 21.331C6.0786 21.3119 6.01041 21.3406 5.98119 21.4075C5.95197 21.4744 5.98119 21.5413 6.03964 21.5699C6.09808 21.5986 6.17601 21.5604 6.19549 21.4935C6.22471 21.4266 6.19549 21.3597 6.13705 21.331Z" fill="#FBFBFB"/>
<path d="M2.04579 25.192C2.0263 25.1346 1.95812 25.0964 1.89967 25.106C1.83149 25.1251 1.79252 25.1824 1.80226 25.2493C1.812 25.3067 1.88019 25.3449 1.94838 25.3258C2.01656 25.3066 2.05553 25.2493 2.04579 25.192Z" fill="#FBFBFB"/>
<path d="M5.22097 24.2365C5.17227 24.1983 5.09434 24.2078 5.0359 24.2556C4.97745 24.3129 4.97745 24.3894 5.01641 24.4372C5.06512 24.485 5.14305 24.4754 5.20149 24.4181C5.25994 24.3607 5.25994 24.2747 5.22097 24.2365Z" fill="#FBFBFB"/>
<path d="M8.47461 15.9981C8.47461 16.0841 8.53306 16.1606 8.61098 16.1606C8.68891 16.1606 8.74736 16.0937 8.74736 16.0077C8.74736 15.9217 8.68891 15.8452 8.61098 15.8452C8.53306 15.8452 8.47461 15.9121 8.47461 15.9981Z" fill="#FBFBFB"/>
<path d="M5.62988 5.73397C5.62988 5.81998 5.68833 5.89643 5.76626 5.89643C5.84418 5.89643 5.90263 5.82953 5.90263 5.74352C5.90263 5.65751 5.84418 5.59061 5.776 5.58105C5.69807 5.58105 5.62988 5.64795 5.62988 5.73397Z" fill="#FBFBFB"/>
<path d="M6.54598 17.6805C6.53624 17.7665 6.59469 17.8334 6.67262 17.8429C6.75054 17.8525 6.81873 17.7856 6.81873 17.6996C6.82847 17.6136 6.77003 17.5467 6.6921 17.5371C6.61417 17.5371 6.55572 17.604 6.54598 17.6805Z" fill="#FBFBFB"/>
<path d="M7.27679 19.4195C7.25731 19.5055 7.30601 19.582 7.3742 19.6011C7.45213 19.6202 7.52031 19.5533 7.5398 19.4673C7.55928 19.3813 7.51057 19.2953 7.43265 19.2857C7.36446 19.2761 7.29627 19.3335 7.27679 19.4195Z" fill="#FBFBFB"/>
<path d="M33.3145 28.8811C33.3242 28.948 33.3826 28.9862 33.4508 28.9766C33.519 28.9671 33.5677 28.9097 33.558 28.8524C33.5482 28.7855 33.4898 28.7473 33.4216 28.7568C33.3534 28.7664 33.3145 28.8237 33.3145 28.8811Z" fill="#FBFBFB"/>
<path d="M29.6025 29.5024C29.6025 29.5693 29.6512 29.6171 29.7292 29.6171C29.7974 29.6171 29.8558 29.5693 29.8655 29.5024C29.8655 29.4355 29.8168 29.3877 29.7389 29.3877C29.661 29.3877 29.6025 29.4355 29.6025 29.5024Z" fill="#FBFBFB"/>
<path d="M24.2062 27.6766C24.1867 27.734 24.2257 27.8009 24.2939 27.82C24.362 27.8391 24.4302 27.8009 24.4497 27.7435C24.4692 27.6862 24.4302 27.6193 24.362 27.6002C24.2939 27.5811 24.2257 27.6193 24.2062 27.6766Z" fill="#FBFBFB"/>
<path d="M31.7647 28.8237C31.7647 28.8906 31.8232 28.9384 31.8914 28.9288C31.9596 28.9288 32.0083 28.8715 32.0083 28.8046C32.0083 28.7377 31.9498 28.6899 31.8816 28.6995C31.8134 28.709 31.755 28.7664 31.7647 28.8237Z" fill="#FBFBFB"/>
<path d="M40.3273 27.2945C40.3565 27.3519 40.4247 27.3805 40.4929 27.3519C40.5611 27.3232 40.5903 27.2563 40.5611 27.199C40.5319 27.1416 40.4637 27.1129 40.3955 27.1416C40.337 27.1703 40.3078 27.2372 40.3273 27.2945Z" fill="#FBFBFB"/>
<path d="M45.3437 24.5137C45.3827 24.5615 45.4606 24.571 45.519 24.5233C45.5775 24.4755 45.5872 24.4086 45.5483 24.3608C45.5093 24.313 45.4314 24.3035 45.3729 24.3512C45.3145 24.3895 45.3047 24.4659 45.3437 24.5137Z" fill="#FBFBFB"/>
<path d="M42.3826 25.3925C42.4118 25.4498 42.4897 25.4689 42.5482 25.4307C42.6066 25.3925 42.6261 25.3256 42.5969 25.2682C42.5676 25.2109 42.4897 25.2013 42.4313 25.23C42.3728 25.2682 42.3533 25.3351 42.3826 25.3925Z" fill="#FBFBFB"/>
<path d="M35.7978 28.0593C35.8757 28.0402 35.9245 27.9637 35.905 27.8968C35.8855 27.8204 35.8173 27.7821 35.7394 27.8013C35.6614 27.8204 35.6127 27.8873 35.6322 27.9637C35.642 28.0306 35.7199 28.0689 35.7978 28.0593Z" fill="#FBFBFB"/>
<path d="M25.7261 29.2154C25.8041 29.2345 25.882 29.1867 25.9015 29.1198C25.921 29.0434 25.8625 28.9765 25.7846 28.9574C25.7067 28.9383 25.6287 28.986 25.6092 29.0529C25.5898 29.1294 25.6482 29.2059 25.7261 29.2154Z" fill="#FBFBFB"/>
<path d="M37.0156 28.8524C37.0935 28.8333 37.1422 28.7568 37.1227 28.6804C37.1032 28.6135 37.0253 28.5657 36.9474 28.5848C36.8695 28.6039 36.8208 28.6804 36.8402 28.7568C36.85 28.8333 36.9279 28.8715 37.0156 28.8524Z" fill="#FBFBFB"/>
<path d="M38.233 27.5144C38.311 27.4857 38.3499 27.4093 38.3304 27.3424C38.3012 27.2755 38.2233 27.2373 38.1551 27.2564C38.0772 27.2851 38.0382 27.3615 38.0577 27.4284C38.0772 27.4953 38.1551 27.5335 38.233 27.5144Z" fill="#FBFBFB"/>
<path d="M37.3662 22.841C37.3662 22.9557 37.4636 23.0513 37.5708 23.0513C37.6877 23.0513 37.7851 22.9557 37.7851 22.8506C37.7851 22.7359 37.6877 22.6403 37.5805 22.6403C37.4636 22.6308 37.3662 22.7263 37.3662 22.841Z" fill="#FBFBFB"/>
<path d="M39.2266 19.8498C39.2266 19.9645 39.324 20.06 39.4311 20.06C39.548 20.06 39.6454 19.9645 39.6454 19.8593C39.6454 19.7447 39.548 19.6491 39.4409 19.6491C39.324 19.6395 39.2266 19.7351 39.2266 19.8498Z" fill="#FBFBFB"/>
<path d="M32.9929 20.9585C32.9442 20.9585 32.8955 20.9967 32.8955 21.0541C32.8955 21.1018 32.9345 21.1496 32.9929 21.1496C33.0416 21.1496 33.0903 21.1114 33.0903 21.0541C33.0903 21.0063 33.0514 20.9585 32.9929 20.9585Z" fill="#FBFBFB"/>
<path d="M33.4119 23.4336C33.3632 23.4336 33.3145 23.4718 33.3145 23.5292C33.3145 23.5769 33.3534 23.6247 33.4119 23.6247C33.4606 23.6247 33.5093 23.5865 33.5093 23.5292C33.5093 23.4718 33.4703 23.4336 33.4119 23.4336Z" fill="#FBFBFB"/>
<path d="M37.9609 21.1593C37.9609 21.2167 38.0096 21.2645 38.0681 21.2645C38.1265 21.2645 38.1752 21.2167 38.1752 21.1593C38.1752 21.102 38.1265 21.0542 38.0681 21.0542C38.0096 21.0542 37.9609 21.102 37.9609 21.1593Z" fill="#FBFBFB"/>
<path d="M32.9932 22.5065C32.9932 22.5638 33.0419 22.6116 33.1003 22.6116C33.1588 22.6116 33.2075 22.5638 33.2075 22.5065C33.2075 22.4492 33.1588 22.4014 33.1003 22.4014C33.0419 22.4014 32.9932 22.4492 32.9932 22.5065Z" fill="#FBFBFB"/>
<path d="M32.4277 24.7814C32.4277 24.8387 32.4764 24.8865 32.5349 24.8865C32.5933 24.8865 32.642 24.8387 32.642 24.7814C32.642 24.7241 32.5933 24.6763 32.5349 24.6763C32.4764 24.6763 32.4277 24.7241 32.4277 24.7814Z" fill="#FBFBFB"/>
<path d="M0.867188 23.4528C0.867188 23.5675 0.964597 23.6631 1.07175 23.6631C1.18864 23.6631 1.28605 23.5675 1.28605 23.4624C1.28605 23.3477 1.18864 23.2521 1.08149 23.2521C0.964597 23.2426 0.867188 23.3381 0.867188 23.4528Z" fill="#FBFBFB"/>
<path d="M2.72818 25.8386C2.84456 25.8175 2.92144 25.7078 2.8999 25.5936C2.87836 25.4794 2.76655 25.404 2.65017 25.4251C2.5338 25.4462 2.45692 25.5559 2.47846 25.6701C2.5 25.7843 2.6118 25.8597 2.72818 25.8386Z" fill="#FBFBFB"/>
<path d="M1.85132 22.0098C1.80261 22.0098 1.75391 22.048 1.75391 22.1053C1.75391 22.1531 1.79287 22.2009 1.85132 22.2009C1.90002 22.2009 1.94872 22.1627 1.94872 22.1053C1.93898 22.0576 1.90002 22.0098 1.85132 22.0098Z" fill="#FBFBFB"/>
<path d="M2.27026 24.4849C2.22156 24.4849 2.17285 24.5231 2.17285 24.5804C2.17285 24.6282 2.21182 24.676 2.27026 24.676C2.31897 24.676 2.36767 24.6378 2.36767 24.5804C2.35793 24.5231 2.31897 24.4849 2.27026 24.4849Z" fill="#FBFBFB"/>
<path d="M2.5918 23.4528C2.5918 23.5101 2.6405 23.5579 2.69895 23.5579C2.75739 23.5579 2.8061 23.5101 2.8061 23.4528C2.8061 23.3954 2.75739 23.3477 2.69895 23.3477C2.6405 23.3477 2.5918 23.3954 2.5918 23.4528Z" fill="#FBFBFB"/>
<path d="M1.84082 23.5578C1.84082 23.6151 1.88953 23.6629 1.94797 23.6629C2.00642 23.6629 2.05512 23.6151 2.05512 23.5578C2.05512 23.5004 2.00642 23.4526 1.94797 23.4526C1.88953 23.4526 1.84082 23.5004 1.84082 23.5578Z" fill="#FBFBFB"/>
<path d="M1.27637 25.8327C1.27637 25.89 1.32507 25.9378 1.38352 25.9378C1.44196 25.9378 1.49067 25.89 1.49067 25.8327C1.49067 25.7753 1.44196 25.7275 1.38352 25.7275C1.32507 25.7275 1.27637 25.7753 1.27637 25.8327Z" fill="#FBFBFB"/>
<path d="M9.8584 18.8845C9.8584 18.9991 9.95581 19.0947 10.063 19.0947C10.1701 19.0947 10.2773 18.9991 10.2773 18.894C10.2773 18.7793 10.1798 18.6838 10.0727 18.6838C9.95581 18.6742 9.8584 18.7698 9.8584 18.8845Z" fill="#FBFBFB"/>
<path d="M12.7607 15.855C12.7607 15.9697 12.8582 16.0652 12.9653 16.0652C13.0822 16.0652 13.1796 15.9697 13.1796 15.8645C13.1796 15.7499 13.0822 15.6543 12.975 15.6543C12.8582 15.6543 12.7607 15.7499 12.7607 15.855Z" fill="#FBFBFB"/>
<path d="M10.3845 12.3477C10.3358 12.3477 10.2871 12.3859 10.2871 12.4432C10.2871 12.491 10.3261 12.5388 10.3845 12.5388C10.4332 12.5388 10.4819 12.5006 10.4819 12.4432C10.4722 12.3859 10.4332 12.3477 10.3845 12.3477Z" fill="#FBFBFB"/>
<path d="M11.8064 14.6797C11.7577 14.6797 11.709 14.7179 11.709 14.7753C11.709 14.823 11.7479 14.8708 11.8064 14.8708C11.8551 14.8708 11.9038 14.8326 11.9038 14.7753C11.8941 14.7179 11.8551 14.6797 11.8064 14.6797Z" fill="#FBFBFB"/>
<path d="M9.77051 14.0871C9.77051 14.1444 9.81921 14.1922 9.87766 14.1922C9.9361 14.1922 9.98481 14.1444 9.98481 14.0871C9.98481 14.0297 9.9361 13.9819 9.87766 13.9819C9.81921 13.9819 9.77051 14.0297 9.77051 14.0871Z" fill="#FBFBFB"/>
<path d="M10.7158 14.1159C10.7158 14.1732 10.7645 14.221 10.823 14.221C10.8814 14.221 10.9301 14.1732 10.9301 14.1159C10.9301 14.0585 10.8814 14.0107 10.823 14.0107C10.7645 14.0107 10.7158 14.0585 10.7158 14.1159Z" fill="#FBFBFB"/>
<path d="M10.1504 16.3903C10.1504 16.4476 10.1991 16.4954 10.2575 16.4954C10.316 16.4954 10.3647 16.4476 10.3647 16.3903C10.3647 16.3329 10.316 16.2852 10.2575 16.2852C10.1991 16.2852 10.1504 16.3329 10.1504 16.3903Z" fill="#FBFBFB"/>
<path opacity="0.72" d="M10.2188 10.637C10.4331 10.8186 10.7545 10.7899 10.9396 10.5797C11.1247 10.3694 11.0955 10.0541 10.8812 9.87247C10.6669 9.69089 10.3454 9.71956 10.1603 9.92981C9.98501 10.1401 10.0045 10.4554 10.2188 10.637Z" fill="#FBFBFB"/>
<path d="M10.3258 7.73158C10.3356 7.86537 10.4622 7.9705 10.5986 7.96094C10.7349 7.95139 10.8421 7.82715 10.8323 7.69335C10.8226 7.55955 10.696 7.45443 10.5596 7.46398C10.4232 7.47354 10.3161 7.59778 10.3258 7.73158Z" fill="#FBFBFB"/>
<path d="M9.8678 11.2296C9.87754 11.3634 10.0042 11.4685 10.1405 11.459C10.2769 11.4494 10.3841 11.3252 10.3743 11.1914C10.3646 11.0576 10.238 10.9525 10.1016 10.962C9.96521 10.9811 9.85806 11.0958 9.8678 11.2296Z" fill="#FBFBFB"/>
<path d="M9.5367 9.01215C9.54644 9.16506 9.68281 9.27975 9.83867 9.27019C9.99452 9.26063 10.1114 9.12684 10.1017 8.97393C10.0919 8.82101 9.95556 8.70633 9.7997 8.71589C9.64385 8.72545 9.52696 8.85924 9.5367 9.01215Z" fill="#FBFBFB"/>
<path d="M10.939 8.93559C10.9487 9.10762 11.1046 9.23186 11.2799 9.2223C11.4553 9.21274 11.5819 9.05983 11.5722 8.88781C11.5624 8.71578 11.4066 8.59154 11.2312 8.6011C11.0559 8.61066 10.9293 8.76357 10.939 8.93559Z" fill="#FBFBFB"/>
<path d="M8.90335 10.694C8.91309 10.8469 9.05921 10.9711 9.21506 10.952C9.37092 10.9425 9.49755 10.7991 9.47807 10.6462C9.46833 10.4933 9.32221 10.3691 9.16636 10.3882C9.0105 10.3977 8.88387 10.5411 8.90335 10.694Z" fill="#FBFBFB"/>
<path d="M15.0496 12.0035C15.3132 12.0035 15.5269 11.7938 15.5269 11.5352C15.5269 11.2766 15.3132 11.0669 15.0496 11.0669C14.786 11.0669 14.5723 11.2766 14.5723 11.5352C14.5723 11.7938 14.786 12.0035 15.0496 12.0035Z" fill="#FBFBFB"/>
<path d="M12.322 4.78814C12.5856 4.78814 12.7993 4.57848 12.7993 4.31985C12.7993 4.06122 12.5856 3.85156 12.322 3.85156C12.0584 3.85156 11.8447 4.06122 11.8447 4.31985C11.8447 4.57848 12.0584 4.78814 12.322 4.78814Z" fill="#FBFBFB"/>
<path d="M20.1931 0.936577C20.4567 0.936577 20.6704 0.726917 20.6704 0.468288C20.6704 0.20966 20.4567 0 20.1931 0C19.9295 0 19.7158 0.20966 19.7158 0.468288C19.7158 0.726917 19.9295 0.936577 20.1931 0.936577Z" fill="#FBFBFB"/>
<path d="M14.9724 1.84429C15.236 1.84429 15.4497 1.63463 15.4497 1.376C15.4497 1.11737 15.236 0.907715 14.9724 0.907715C14.7088 0.907715 14.4951 1.11737 14.4951 1.376C14.4951 1.63463 14.7088 1.84429 14.9724 1.84429Z" fill="#FBFBFB"/>
<path d="M19.5701 23.9112C19.8337 23.9112 20.0474 23.7015 20.0474 23.4429C20.0474 23.1843 19.8337 22.9746 19.5701 22.9746C19.3065 22.9746 19.0928 23.1843 19.0928 23.4429C19.0928 23.7015 19.3065 23.9112 19.5701 23.9112Z" fill="#FBFBFB"/>
<path d="M15.8777 23.4429C16.1413 23.4429 16.355 23.2333 16.355 22.9746C16.355 22.716 16.1413 22.5063 15.8777 22.5063C15.6141 22.5063 15.4004 22.716 15.4004 22.9746C15.4004 23.2333 15.6141 23.4429 15.8777 23.4429Z" fill="#FBFBFB"/>
<path d="M13.199 24.4273C13.4626 24.4273 13.6763 24.2176 13.6763 23.959C13.6763 23.7004 13.4626 23.4907 13.199 23.4907C12.9354 23.4907 12.7217 23.7004 12.7217 23.959C12.7217 24.2176 12.9354 24.4273 13.199 24.4273Z" fill="#FBFBFB"/>
<path d="M9.68238 26.6924C9.94599 26.6924 10.1597 26.4828 10.1597 26.2241C10.1597 25.9655 9.94599 25.7559 9.68238 25.7559C9.41878 25.7559 9.20508 25.9655 9.20508 26.2241C9.20508 26.4828 9.41878 26.6924 9.68238 26.6924Z" fill="#FBFBFB"/>
<path d="M6.36109 25.9756C6.09809 25.9756 5.88379 26.1858 5.88379 26.4439C5.88379 26.7019 6.09809 26.9122 6.36109 26.9122C6.6241 26.9122 6.8384 26.7019 6.8384 26.4439C6.82866 26.1858 6.6241 25.9756 6.36109 25.9756Z" fill="#FBFBFB"/>
<path d="M3.76051 22.8409C4.02412 22.8409 4.23781 22.6312 4.23781 22.3726C4.23781 22.114 4.02412 21.9043 3.76051 21.9043C3.4969 21.9043 3.2832 22.114 3.2832 22.3726C3.2832 22.6312 3.4969 22.8409 3.76051 22.8409Z" fill="#FBFBFB"/>
<path d="M1.69508 22.0093C1.95869 22.0093 2.17238 21.7997 2.17238 21.541C2.17238 21.2824 1.95869 21.0728 1.69508 21.0728C1.43147 21.0728 1.21777 21.2824 1.21777 21.541C1.21777 21.7997 1.43147 22.0093 1.69508 22.0093Z" fill="#FBFBFB"/>
<path d="M19.5896 31.7671C19.3266 31.7671 19.1123 31.9773 19.1123 32.2354C19.1123 32.4934 19.3266 32.7037 19.5896 32.7037C19.8526 32.7037 20.0669 32.4934 20.0669 32.2354C20.0669 31.9773 19.8526 31.7671 19.5896 31.7671Z" fill="#FBFBFB"/>
<path d="M13.0339 25.4307C13.2976 25.4307 13.5113 25.2211 13.5113 24.9624C13.5113 24.7038 13.2976 24.4941 13.0339 24.4941C12.7703 24.4941 12.5566 24.7038 12.5566 24.9624C12.5566 25.2211 12.7703 25.4307 13.0339 25.4307Z" fill="#FBFBFB"/>
<path d="M13.8709 25.3448C14.1345 25.3448 14.3482 25.1351 14.3482 24.8765C14.3482 24.6179 14.1345 24.4082 13.8709 24.4082C13.6073 24.4082 13.3936 24.6179 13.3936 24.8765C13.3936 25.1351 13.6073 25.3448 13.8709 25.3448Z" fill="#FBFBFB"/>
<path d="M18.1961 28.4029C18.4597 28.4029 18.6734 28.1932 18.6734 27.9346C18.6734 27.676 18.4597 27.4663 18.1961 27.4663C17.9324 27.4663 17.7188 27.676 17.7188 27.9346C17.7188 28.1932 17.9324 28.4029 18.1961 28.4029Z" fill="#FBFBFB"/>
<path d="M17.7869 29.0435C18.0505 29.0435 18.2642 28.8339 18.2642 28.5752C18.2642 28.3166 18.0505 28.1069 17.7869 28.1069C17.5233 28.1069 17.3096 28.3166 17.3096 28.5752C17.3096 28.8339 17.5233 29.0435 17.7869 29.0435Z" fill="#FBFBFB"/>
<path d="M5.41578 23.6724C5.67939 23.6724 5.89309 23.4628 5.89309 23.2041C5.89309 22.9455 5.67939 22.7358 5.41578 22.7358C5.15217 22.7358 4.93848 22.9455 4.93848 23.2041C4.93848 23.4628 5.15217 23.6724 5.41578 23.6724Z" fill="#FBFBFB"/>
<path d="M6.50758 17.1929C6.77119 17.1929 6.98488 16.9833 6.98488 16.7246C6.98488 16.466 6.77119 16.2563 6.50758 16.2563C6.24397 16.2563 6.03027 16.466 6.03027 16.7246C6.03027 16.9833 6.24397 17.1929 6.50758 17.1929Z" fill="#FBFBFB"/>
<path d="M6.79957 22.8599C7.06318 22.8599 7.27688 22.6503 7.27688 22.3916C7.27688 22.133 7.06318 21.9233 6.79957 21.9233C6.53596 21.9233 6.32227 22.133 6.32227 22.3916C6.32227 22.6503 6.53596 22.8599 6.79957 22.8599Z" fill="#FBFBFB"/>
<path d="M0.711088 27.0652C1.10381 27.0652 1.42218 26.7529 1.42218 26.3676C1.42218 25.9823 1.10381 25.6699 0.711088 25.6699C0.318365 25.6699 0 25.9823 0 26.3676C0 26.7529 0.318365 27.0652 0.711088 27.0652Z" fill="#FBFBFB"/>
<path d="M16.131 43.8091C15.5076 42.6145 14.4166 41.6779 13.1211 41.2383C12.6146 41.0663 12.0885 40.9707 11.5723 40.8751C11.1729 40.7987 10.7638 40.7318 10.3644 40.6171C9.05911 40.2635 7.83175 39.4703 6.90637 38.3903C5.98098 37.3104 5.40626 35.9915 5.26989 34.6631C5.23093 34.2522 5.22118 33.8317 5.22118 33.4303C5.22118 33.0289 5.21144 32.618 5.17248 32.207C5.06533 31.1558 4.70492 30.028 4.06201 28.7761C3.34118 27.3617 2.52295 26.6067 1.55859 26.4729L1.56833 26.4155C2.55217 26.5493 3.38015 27.3139 4.11072 28.7474C4.75362 30.0089 5.12378 31.1366 5.23093 32.1975C5.26989 32.6084 5.27963 33.0194 5.27963 33.4207C5.27963 33.8221 5.28937 34.2426 5.32833 34.6536C5.46471 35.9629 6.03942 37.2817 6.95507 38.3425C7.87072 39.4034 9.08833 40.1966 10.3839 40.5502C10.7735 40.6553 11.1924 40.7318 11.582 40.8082C12.0983 40.9038 12.634 40.9994 13.1406 41.1714C14.4361 41.611 15.5466 42.5571 16.1797 43.7709L16.131 43.8091Z" fill="#FBFBFB"/>
<path d="M16.3358 43.6942C16.3942 43.7993 16.3552 43.9236 16.2481 43.9809C16.1409 44.0382 16.0143 44 15.9559 43.8949C15.8974 43.7898 15.9364 43.6655 16.0435 43.6082C16.1507 43.5508 16.2773 43.5891 16.3358 43.6942Z" fill="#FBFBFB"/>
<path d="M3.36109 28.0494C2.96171 28.4412 2.95197 29.0815 3.35135 29.4734C3.75073 29.8652 4.40337 29.8748 4.80275 29.4829C5.20213 29.0911 5.21187 28.4508 4.81249 28.059C4.41311 27.6671 3.76047 27.6576 3.36109 28.0494Z" fill="#FBFBFB"/>
<path d="M9.95533 7.39698C10.3255 7.39698 10.6275 7.10071 10.6275 6.73755C10.6275 6.37439 10.3255 6.07812 9.95533 6.07812C9.58517 6.07812 9.2832 6.37439 9.2832 6.73755C9.2832 7.09116 9.58517 7.38742 9.95533 7.39698Z" fill="#FBFBFB"/>
<path d="M8.37769 14.928C8.86473 14.928 9.25437 14.5457 9.25437 14.0774C9.25437 13.5996 8.86473 13.2173 8.38743 13.2173C7.90038 13.2173 7.51074 13.5996 7.51074 14.0678C7.51074 14.5361 7.90038 14.928 8.37769 14.928Z" fill="#FBFBFB"/>
<path d="M25.463 32.6463C25.8721 32.6463 26.213 32.3214 26.213 31.92C26.213 31.5186 25.8818 31.1841 25.4727 31.1841C25.0636 31.1841 24.7227 31.509 24.7227 31.9104C24.7227 32.3118 25.0538 32.6463 25.463 32.6463Z" fill="#FBFBFB"/>
<path d="M5.02635 9.63318C4.62697 10.025 4.62697 10.6558 5.01661 11.0572C5.41599 11.449 6.05889 11.449 6.46801 11.0667C6.86739 10.6749 6.86738 10.0441 6.47775 9.64274C6.07837 9.2509 5.42573 9.2509 5.02635 9.63318Z" fill="#FBFBFB"/>
</g>
<defs>
<clipPath id="clip0_1519_592">
<rect width="47" height="44" fill="white"/>
</clipPath>
</defs>
</svg>
